<?xml version="1.0" standalone="no"?>
<!DOCTYPE svg PUBLIC "-//W3C//DTD SVG 1.1//EN" "http://www.w3.org/Graphics/SVG/1.1/DTD/svg11.dtd" >
<svg xmlns="http://www.w3.org/2000/svg">
<metadata>Generated by IcoMoon</metadata>
<defs>
<font id="ooyala-slick-type" horiz-adv-x="1024">
<font-face units-per-em="1024" ascent="960" descent="-64" />
<missing-glyph horiz-adv-x="1024" />
<glyph unicode="&#x20;" horiz-adv-x="0" d="" />
<glyph unicode="&#x41;" glyph-name="share-atom" d="M72 236c2 48 24 82 68 102s86 14 122-18c8-8 14-8 22-2 20 14 40 28 62 42 8 4 8 8 4 16-40 86-6 190 78 236 18 8 36 16 56 18 8 0 8 2 8 10 0 32 0 64 0 98 0 6-2 8-8 10-48 14-76 46-84 94-10 62 34 120 96 130 60 8 120-36 128-94 10-66-30-120-94-132-6 0-6-4-6-8 0-32 0-64 0-96 0-10 4-10 10-10 72-10 122-50 148-116 18-48 16-96-6-140-4-8-2-10 4-16 22-14 44-28 66-44 6-4 10-4 16 2 34 34 86 40 128 18 44-20 70-68 64-114-6-48-40-88-88-98-42-10-78 0-108 32-30 34-40 72-24 116 2 10 2 14-8 20-22 14-42 28-62 42-6 4-10 4-16-2-70-76-182-80-258-10-8 4-12 16-18 16-8 0-16-8-24-14-16-10-32-22-50-32-8-4-8-8-6-16 24-60-10-128-70-148-62-20-126 14-146 76-2 10-4 22-4 32z" />
<glyph unicode="&#x42;" glyph-name="share-globe" d="M512 24c-270 0-488 218-488 488s218 488 488 488c270 0 488-218 488-488s-218-488-488-488zM512 958c-246 0-446-200-446-446s200-446 446-446c246 0 446 200 446 446s-200 446-446 446zM422 798c6 0 28-26 28-26v-24c0 0-12 6 24 0 34-8 40-6 40-6s40 0 40 6c0 8 0 28 0 28s28 20 32 24c2 4 2 8 0 18s-12 24-12 24c0 0 2 2-38 0s-42-2-42-2l-12 18c0 0 10 28-20 0-26-26-122-26-70-30l-10-44 52 30zM250 688c-10-6-46-74-46-74v-30l-20-50 10-36 4-24 8-32c0 0 12-24 18-28 8-2 24-12 24-12s0-20 8-20c8 0 16-10 16-10l8-22 30-36c0 0 14 2 20-14s6-16 6-16 8-22 0-32c-8-8-12-18-12-18l48-44 42-14c0 0 8-14 42-22 34-6 34-6 34-6l42 6 32 30h38l14-6 16 40 6 58c0 0 0 20 0 24-2 4-6 4-10 8-4 6-14 14-14 14l-16 8-40 38-32 16-50-10-32 2c0 0-18-12-26-14-6 0-16-4-16-4l-22-4c0 0-12-6-28-6-18 0-28 0-28 0s0-4-8 2c-8 6-8 6-8 6l-6 10-8 16c0 0 2 14 0 20-4 8-4-2-4 8s-28-14 0 10c30 24 58 32 58 32l40 20 2 26v38l-4 24c0 0-8 42 0 54 8 14 2 22 2 22v24c0 0-16-4-36 28-22 30 22 8-18 30s-44 22-44 22c0 0-24-6-38-8-12-4-22-22-22-22l4-38M812 720l20-24 6-28 8-20v-12l-4-24 16-52 16-38c0 0-4 12 6-30 10-44 0 0-6-34s2 6-16-50c-18-58 0 8-8-22-8-32 0 0-28-46-30-44 2 8-32-16-32-24 0 0-16-16-18-18 0 0-32-8-30-8 0 0-22 6-20 6-12 28-12 28s100 62 90 96c-8 34-96-58-138-28-40 32 10-6-26 8-38 12 0 0-30 12-32 12 0 0-54 32s0 0-16 28c-16 26 0 0-8 46-6 46-52-2-4 48 34 36-2-6 6 12s-6-6 12 24c16 30-2-10 6 16 10 26 0 0 8 16s8 8 8 8l56-50c0 0 48 36 56 48 10 10-88 50-60 68 28 22 44 16 48 18h66l8 12 24-2 28-8 20-2h12z" />
<glyph unicode="&#x43;" glyph-name="share-uniform" d="M978 852c0-86-70-156-156-156s-156 70-156 156c0 88 70 158 156 158s156-70 156-158zM358 558c0-86-70-156-156-156s-156 70-156 156c0 86 70 156 156 156s156-70 156-156zM940 172c0-88-70-158-156-158-88 0-158 70-158 158 0 86 70 156 158 156 86 0 156-70 156-156zM370 618l-4 6c-2 6 0 14 6 18l262 142c8 2 16 0 20-6l2-6c4-6 2-14-4-18l-264-142c-6-4-14-2-18 6zM366 462l4 6c4 8 12 8 20 4l240-170c6-4 6-12 2-18l-4-6c-4-6-12-8-18-4l-240 170c-6 4-8 12-4 18z" />
<glyph unicode="&#x44;" glyph-name="skip-chubby" d="M770 538l-678 392c-22 12-46-4-46-26v-784c0-24 24-40 46-26l678 390c20 14 20 42 0 54zM942 108h-40c-18 0-32 14-32 32v744c0 18 14 32 32 32h40c16 0 30-14 30-32v-744c0-18-14-32-30-32z" />
<glyph unicode="&#x45;" glyph-name="skip-modern" d="M966 124c-6 0-10 6-10 12v754c0 6 4 12 10 12s12-6 12-12v-754c0-6-4-12-12-12zM66 72l-10 4c-6 2-10 8-10 16v852l8 6c4 2 10 2 14 0l758-436-754-436zM72 916v-806l700 404z" />
<glyph unicode="&#x46;" glyph-name="share-bubble" d="M962 574c-2-76-32-136-84-188-8-10-12-18-8-30 12-72 24-144 38-214 2-4 2-6 2-10 2-4 2-8-2-10s-6 0-10 2c-20 14-42 28-62 42-50 32-100 66-148 98-8 4-14 6-22 4-150-38-296-26-434 50-66 38-120 88-150 160-42 104-18 196 56 276 60 68 136 106 224 128 140 34 276 24 408-40 70-36 130-86 164-156 20-36 28-72 28-112zM244 646c-36 0-66-30-66-66 0-38 30-66 66-66 38 0 68 28 68 66 0 36-30 66-68 66zM512 646c-36 0-66-30-66-66 0-38 30-66 66-66s66 28 66 66c0 36-30 66-66 66zM780 646c-38 0-68-30-68-66 0-38 30-66 68-66 36 0 66 28 66 66 0 36-28 66-66 66z" />
<glyph unicode="&#x47;" glyph-name="skip-slick" d="M782 510l-638-368c-2 0-4 0-4 2v736c0 0 2 2 4 2l638-368c2 0 2-4 0-4zM872 144c-6 0-10 4-10 10v718c0 6 6 10 10 10 6 0 10-6 10-10v-718c2-6-4-10-10-10z" />
<glyph unicode="&#x48;" glyph-name="system-20skip" d="M300 104c12 22 10 48-6 70-104 144-90 344 40 470 66 64 146 98 242 104v-142c102 60 202 118 306 178-104 60-206 118-310 178v-128c-8-2-8 0-20-2-104-10-202-54-276-128-108-108-150-240-128-390 14-98 58-182 130-250zM620 204h-174v40l80 102c6 8 10 14 14 20 2 6 6 12 8 20 4 4 4 10 6 14s2 8 2 12c0 14-4 24-8 32s-10 10-18 10c-6 0-10 0-14-2-2-4-8-6-10-10s-4-10-6-16c0-6-2-14-2-20h-56c0 14 2 26 6 38s10 22 16 32c10 8 18 14 28 20 10 4 24 8 38 8 12 0 24-2 34-6s18-10 26-16c6-8 12-16 16-28 2-10 4-22 4-34 0-10 0-20-2-28-4-10-6-20-12-28-6-10-10-18-18-28-6-10-12-20-20-30l-38-56h98zM824 324c0-22-2-40-6-56s-10-28-18-38c-8-10-16-20-26-24s-22-6-34-6c-12 0-24 2-34 6-10 6-18 14-26 24s-14 22-18 38c-4 16-6 34-6 56v52c0 22 2 40 6 56s10 28 16 40c10 10 18 18 28 22s22 6 34 6c12 0 22-2 34-6 10-6 18-12 26-22 8-12 14-24 18-40s6-34 6-56zM768 386c0 12-2 22-2 32-2 8-4 16-6 22-4 4-6 8-8 12-4 2-8 2-12 2s-8 0-12-2c-6-2-8-6-10-12s-4-14-6-22c-2-8-2-20-2-32v-68c0-14 2-24 2-34 2-8 4-16 6-20 4-6 6-10 10-14 2-2 8-2 12-2s8 0 12 2c2 4 6 8 8 14 2 4 4 12 4 20 2 8 2 20 2 34z" />
<glyph unicode="&#x49;" glyph-name="bitrate-mm-ooyala-large" d="M634 836v-278c0-12-10-22-22-22h-280c-10 0-20 8-20 22v278c0 12 8 22 20 22h280c12 0 22-10 22-22zM280 412v-218c0-8-6-16-16-16h-218c-10 0-16 8-16 16v218c0 10 6 18 16 18h218c10 0 16-8 16-18zM206 776v-158c0-6-4-12-12-12h-158c-6 0-12 4-12 12v158c0 6 4 12 12 12h158c8 0 12-6 12-12zM832 578h-56c-4 0-10 4-10 10v56c0 6 6 10 10 10h56c6 0 10-4 10-10v-56c0-6-4-10-10-10zM978 166h-128c-10 0-20 10-20 22v128c0 10 8 20 20 20h128c12 0 22-8 22-20v-128c0-12-10-22-22-22zM762 392h-72c-6 0-12 4-12 12v72c0 6 6 12 12 12h72c8 0 14-4 14-12v-72c-2-6-6-12-14-12zM538 330h-56c-6 0-10 4-10 8v58c0 4 4 8 10 8h56c4 0 8-4 8-8v-58c0-4-4-8-8-8z" />
<glyph unicode="&#x4a;" glyph-name="discovery-graph" d="M420 652c0-8 0-18-4-24-4-8 0-14 6-22 48-48 96-98 144-146 4-4 6-4 12-2 30 16 58 16 86-2 6-6 10-2 14 2 58 82 114 164 172 246 4 4 6 8 0 14-24 32-22 74 0 104 24 28 66 40 100 24 34-14 54-50 50-88-6-38-34-66-72-72-10 0-18-2-26 2-10 2-14 0-20-8-58-86-120-172-180-258-4-6-4-10-2-16 12-54-28-106-82-106-58 0-98 56-80 112 4 10 2 16-4 22-48 46-94 94-140 142-6 6-8 6-18 2-20-12-42-14-66-8-8 4-10 2-16-6-40-80-82-160-122-240-6-8-4-12 2-18 26-30 30-70 10-104-20-30-60-46-94-36-38 12-62 44-62 82s24 70 62 80c10 4 20 4 30 4 6-2 10 0 12 6 44 84 88 170 132 254 4 8 2 12-2 16-16 32-16 62 6 92 20 28 48 38 82 32 36-6 58-28 66-64 2-4 4-10 4-16zM272 652c0-34 30-64 62-64 34 0 64 28 64 62 2 34-28 64-62 64s-64-28-64-62zM918 834c-36 0-64-28-64-62 0-36 28-64 62-64 36 0 64 28 64 62s-28 62-62 64zM682 386c0 32-30 62-64 62s-64-30-62-64c0-34 28-62 64-62 34 0 62 30 62 64zM176 248c0 34-28 64-62 64-36 0-64-28-64-62s28-64 62-64c36 0 64 28 64 62z" />
<glyph unicode="&#x4b;" glyph-name="fast-forward-slick" d="M660 510l-638-368c0 0-2 0-2 2v736c0 0 0 2 2 2l638-368c2 0 2-4 0-4zM1004 510l-638-368c-2 0-4 0-4 2v150c0 2 2 6 4 6l350 208c4 2 4 8 0 10l-350 208c-2 2-4 4-4 6v148c0 0 2 2 4 2l638-368c2 0 2-4 0-4z" />
<glyph unicode="&#x4c;" glyph-name="system-logo-ooyala" d="M208 510c0 48 36 80 80 80s80-32 80-80c0-46-36-78-80-78s-80 32-80 78M344 510c0 34-24 58-56 58s-56-24-56-58c0-32 22-56 56-56 32 0 56 24 56 56M382 510c0 48 36 80 80 80s80-32 80-80c0-46-36-78-80-78s-80 32-80 78M518 510c0 34-24 58-56 58s-56-24-56-58c0-32 24-56 56-56s56 24 56 56M530 590h28l44-82 42 82h26l-54-106v-48h-28v46zM654 436h-26l68 154h2l68-154h-26l-8 18h-70zM698 542l-26-62h50zM780 590h26v-136h66l-8-18h-84zM906 436h-24l68 154 68-154h-24l-10 18h-70zM950 542l-26-62h50zM1010 568c-2-4-6-4-10-4s-6 0-10 4c-2 2-4 6-4 10s2 6 4 10c4 2 6 4 10 4s8-2 10-4c4-4 4-6 4-10 2-4 0-8-4-10M992 586c-2-2-4-4-4-8s0-6 4-10c2-2 4-4 8-4s6 2 10 4c2 2 4 6 4 10 0 2-2 6-4 8s-6 4-10 4c-2 0-6 0-8-4M1000 586c2 0 4 0 4-2 2 0 2-2 2-4 0 0 0-2-2-2 0 0 0-2-2-2 2 0 2 0 4-2 0 0 0-2 0-2v0c0 0 0-2 0-2s0 0 0 0h-2v2c0 2 0 2-2 4 0 0-2 0-2 0h-2v-6h-4v16h6zM1004 584c-2 0-2 0-4 0h-2v-6h4c0 0 2 0 2 0 2 0 2 2 2 2-2 2-2 4-2 4M112 566c0-16-12-26-26-26s-26 10-26 26c0 14 12 24 26 24s26-12 26-24M56 526c0-16-10-26-26-26-14 0-24 10-24 26 0 14 10 24 24 24 16 0 26-12 26-24M76 460c0-14-10-26-24-26-16 0-26 12-26 26s10 26 26 26c14-2 24-12 24-26M146 460c0-14-10-26-26-26-14 0-24 12-24 26s10 26 24 26c14-2 26-12 26-26M166 526c0-16-10-26-24-26-16 0-26 10-26 26 0 14 10 24 26 24 14 0 24-12 24-24" />
<glyph unicode="&#x4d;" glyph-name="bitrate-video-quailty" d="M276 428l100 430h134l-172-594h-126l-168 594h132zM978 516c0-52-6-96-20-130-14-36-34-64-58-84l82-74-76-70-110 100c-4 0-10 0-14 0-6 0-10-2-18-2-30 0-60 6-86 16-26 12-50 28-68 50s-34 48-44 80c-10 34-16 70-16 114v90c0 44 6 82 16 112 10 32 24 60 44 82 18 22 42 38 68 50s56 16 86 16c32 0 62-4 88-16s50-28 68-50c18-20 34-48 44-82 10-32 14-70 14-112zM858 608c0 28-2 52-6 72s-10 36-18 50c-8 12-18 22-30 28s-26 8-40 8c-16 0-28-2-42-8-12-6-20-16-28-28-8-14-16-30-20-50s-6-44-6-72v-92c0-28 2-54 6-74s12-36 20-48c8-14 18-24 28-30 14-6 26-8 42-8s28 2 40 8c12 6 22 16 30 30 8 12 14 28 18 48s6 44 6 74z" />
<glyph unicode="&#x4e;" glyph-name="discovery-compas" d="M762 540c-14 2-26-10-28-24 0-16 12-28 26-28 14-2 28 10 28 24 0 16-10 28-26 28zM260 536c-12 0-24-10-24-22 0-14 10-24 22-26 14 0 24 10 26 22 0 14-10 26-24 26zM834 770c142-178 114-438-64-578-180-142-438-114-580 66-140 178-112 436 66 578 178 140 436 112 578-66zM310 768c-142-112-164-316-52-456 110-140 316-164 456-52 140 110 164 316 52 456s-316 164-456 52zM104 766l164 142c6 6 2 18-8 20l-200 66c-8 2-14-2-12-10l40-208c0-10 12-16 16-10zM922 258l-164-140c-6-6-2-18 6-20l200-68c8-2 14 2 12 10l-36 208c0 10-12 16-18 10zM556 562l-172-46 126-128zM520 634l10 12 110-112-10-10z" />
<glyph unicode="&#x4f;" glyph-name="pause-modern" d="M394 86h-216v852h216zM208 116h156v792h-156zM846 86h-216v852h216zM660 116h156v792h-156z" />
<glyph unicode="&#x50;" glyph-name="bitrate-list" d="M896 786h-824c-20 0-36 16-36 36s16 36 36 36h824c20 0 36-16 36-36s-16-36-36-36zM646 510h-574c-20 0-36 16-36 36s16 36 36 36h574c18 0 34-16 34-36s-16-36-34-36zM434 234h-362c-20 0-36 16-36 36 0 18 16 36 36 36h362c18 0 34-18 34-36 0-22-16-36-34-36z" />
<glyph unicode="&#x51;" glyph-name="pause-chubby" d="M358 40h-184c-18 0-32 14-32 32v880c0 18 14 32 32 32h184c18 0 32-14 32-32v-880c0-16-16-32-32-32zM850 40h-184c-18 0-32 14-32 32v880c0 18 14 32 32 32h184c18 0 32-14 32-32v-880c0-16-14-32-32-32z" />
<glyph unicode="&#x52;" glyph-name="caret-square-o-down" d="M728 638c6-14 6-26-4-38l-182-256c-8-10-18-14-30-14s-22 4-30 14l-182 256c-10 12-10 24-4 38 8 14 18 20 34 20h364c16 0 26-6 34-20zM804 238v548c0 6-2 10-4 14-4 2-8 4-14 4h-548c-6 0-10-2-14-4-2-4-4-8-4-14v-548c0-6 2-10 4-14 4-2 8-4 14-4h548c6 0 10 2 14 4 2 4 4 8 4 14zM950 786v-548c0-46-16-84-48-116s-70-48-116-48h-548c-46 0-84 16-116 48s-48 70-48 116v548c0 46 16 84 48 116s70 48 116 48h548c46 0 84-16 116-48s48-70 48-116z" />
<glyph unicode="&#x53;" glyph-name="volume-mute-bars" d="M632 394c-4 2-6 4-8 6-42 44-84 86-128 128-6 8-10 6-16 0-42-42-84-84-126-128-6-6-10-6-16 0-6 8-18 14-20 22 0 8 12 16 20 22 38 38 76 78 114 116 6 4 6 8 0 14-42 42-86 86-128 128-6 6-8 10 0 16s14 18 22 20c6 0 14-14 22-20 38-38 76-76 114-114 6-8 10-8 16 0 42 42 86 86 128 128 4 6 8 8 16 0 6-8 18-14 18-22 2-8-12-14-18-22-38-38-76-76-116-114-6-6-4-8 0-14 44-44 86-86 130-128 6-8 6-12 0-18-6-4-12-10-18-16-2-2-4-4-6-4zM320 132c0 32 0 64 0 96 0 10 2 12 10 12 44 0 88 0 130 0 8 0 12-2 12-10 0-66 0-130 0-196 0-8-2-10-12-10-42 0-86 0-130 0-8 0-12 2-12 10 2 32 2 64 2 98zM710 132c0-34 0-66 0-98 0-8-2-12-10-12-44 0-88 0-132 0-8 0-10 2-10 10 0 66 0 132 0 198 0 8 4 10 10 10 44 0 88 0 132 0 8 0 10-4 10-12 0-32 0-64 0-96zM82 98c0 22 0 46 0 68 0 8 2 10 10 10 44 0 88 0 134 0 8 0 10-2 10-10 0-44 0-88 0-132 0-6-2-10-10-10-44 0-88 0-134 0-8 0-10 2-10 8 0 22 0 44 0 66zM870 24c-22 0-42 0-64 0-8 0-10 2-10 10 0 44 0 88 0 130 0 10 2 12 10 12 44 0 88 0 130 0 10 0 14-2 14-12 0-44 0-86 0-130 0-8-4-12-14-12-22 2-44 2-66 2z" />
<glyph unicode="&#x54;" glyph-name="fast-forward-chubby" d="M388 354c-38-22-76-44-112-64-72-42-142-84-216-126-14-8-28-6-36 4-4 6-6 12-6 18 0 218 0 434 0 652 0 22 20 34 42 22 88-52 178-104 266-154 18-10 36-20 52-32 8-4 10-2 10 6 0 52 0 102-2 154 0 24 20 38 44 26 186-108 370-214 556-322 24-14 24-38 0-52-184-108-370-214-554-322-22-12-44 0-44 26 0 54 0 108 0 164z" />
<glyph unicode="&#x55;" glyph-name="volume-on-bard" d="M226 22h-142c-2 0-4 2-4 6v704c0 4 2 6 4 6h144c2 0 4-2 4-6v-706c0-2-2-4-6-4zM464 22h-142c-4 0-6 2-6 6v370c0 4 2 6 6 6h142c2 0 4-2 4-6v-370c0-4-2-6-4-6zM702 22h-142c-2 0-4 2-4 6v968c0 4 2 6 4 6h142c4 0 6-2 6-6v-970c0-2-4-4-6-4zM940 22h-142c-4 0-6 2-6 6v420c0 4 2 6 6 6h142c4 0 6-2 6-6v-422c-2-2-4-4-6-4z" />
<glyph unicode="&#x56;" glyph-name="bitrate-bars" d="M74 258h182v-242h-182zM74 442h182v-122h-182zM420 506h184v-308h-184zM420 138h184v-122h-184zM420 688h184v-122h-184zM766 740h184v-456h-184zM766 196h184v-180h-184zM768 1008h182v-178h-182z" />
<glyph unicode="&#x58;" glyph-name="bitrate-kbs" d="M152 462l-36-44v-128h-90v444h90v-194l28 48 82 146h110l-128-196 130-248h-106zM380 290v444h138c22 0 42-2 60-8 16-6 32-12 44-22s22-24 28-38c6-16 8-34 8-54 0-10 0-20-2-30s-6-18-10-26c-6-10-12-16-18-24-8-6-14-10-24-14 12-2 20-8 28-14 10-6 16-14 20-22 6-8 8-20 10-30s4-20 4-32c0-42-12-74-36-96s-58-34-102-34zM472 548h46c16 0 30 4 40 14 8 10 12 22 12 42s-4 34-12 42c-8 10-22 14-40 14h-46zM472 484v-118h56c10 0 16 0 22 4 8 2 12 6 16 12s8 12 8 18c2 8 4 14 4 22 0 20-4 34-10 46-8 12-20 16-36 16h-60zM908 406c0 8-2 14-2 22-2 6-4 12-10 16-6 6-12 10-20 16-8 4-18 10-34 16s-32 14-46 22c-16 8-30 18-40 28-12 12-20 24-28 38s-10 32-10 50c0 18 2 36 10 50 8 16 16 30 28 40 14 10 28 18 44 24 18 6 36 10 58 10 20 0 40-4 56-10 18-8 32-18 44-30s22-26 28-42c6-18 10-36 10-56h-88c0 10-2 18-4 26s-4 14-10 20c-4 6-8 10-16 14-6 2-14 4-22 4-10 0-16 0-24-4-6-2-10-6-14-10s-8-12-10-18c-2-6-4-12-4-20 0-6 2-14 6-20 4-4 8-10 14-16 6-4 12-10 20-14s18-10 28-14c20-6 38-14 54-24 16-8 28-20 38-30 10-12 20-26 24-40 6-14 8-30 8-48 0-20-4-38-10-52-6-16-16-28-28-40-12-10-26-18-42-24-16-4-36-8-58-8-20 0-38 4-56 8-18 6-36 16-50 28s-24 26-34 44c-10 18-14 40-14 66h90c0-14 2-24 4-34 4-8 6-16 14-22 6-6 12-10 18-12 8-2 18-4 28-4 8 0 16 0 22 4 6 2 10 6 14 10s6 8 8 16c4 8 6 14 6 20z" />
<glyph unicode="&#x5a;" glyph-name="discovery-flame" d="M652 96c82 180 4 390-126 482 0-24 4-46 6-70 6-50 12-100 8-150-2-22-6-44-16-64-2-4-6-8-8-12-18 68-56 124-82 186-4-6-6-14-8-20s-4-12-8-18c-10-34-24-64-44-94-16-22-30-48-40-74-18-46-12-90 4-136 6-10 10-20 14-34-4 2-6 2-6 2-58 32-110 70-150 124-48 60-54 130-38 204 10 42 30 80 48 118 22 44 44 88 50 140 28-42 30-86 34-130 4 0 6 2 6 4 56 70 106 142 136 226 14 44 22 88 18 134 0 4 0 6 0 10 12 0 20-6 30-10 66-38 114-94 152-160 22-38 36-78 50-118 2-6 2-10 6-14 30 26 38 90 18 140 6 2 8-2 12-6 78-78 134-168 156-276s-8-200-80-280c-38-42-82-76-132-102-4-2-6-4-10-2z" />
<glyph unicode="&#x61;" glyph-name="discovery-mm-ooyala-large" d="M316 654c-2 8-12 14-20 12-10-4-16-14-12-22 2-10 12-16 20-12 10 2 16 12 12 22zM314 598l-46 10c0 0-2 0-2-2l6-84c0-2 4-2 4-2l40 76c0 0 0 2-2 2zM288 692l40-8c4 0 6 2 6 4l-4 86c0 4-6 4-8 2l-38-78c0-2 0-6 4-6zM106 778l96 90c4 2 2 10-4 12l-124 36c-4 0-8-2-8-6l28-126c2-6 8-10 12-6zM202 788l-12-38-26 30zM386 804l10-4-14-26-10 6zM402 796l10-6-14-26-10 6zM182 540l18 14 14-20-18-14zM172 660c0-6-6-10-10-10-6 0-10 4-10 10 0 4 4 8 10 8 4 0 10-4 10-8zM462 694c0-6-4-10-8-10-6 0-10 4-10 10 0 4 4 8 10 8 4 0 8-4 8-8zM298 822c0-4-4-8-10-8-4 0-8 4-8 8 0 6 4 10 8 10 6 0 10-4 10-10zM196 880c34 18 70 24 108 22 90-6 158-50 202-128 18-34 26-70 28-108 0-16-12-24-26-18-6 2-10 8-10 16-2 42-14 80-38 114-46 68-130 100-210 84-82-20-144-84-156-168-16-92 34-184 122-220 0 0 2 0 4-2 10-6 14-14 10-24-4-8-14-12-26-8-26 10-52 24-72 46-86 78-104 202-44 300 2 2 4 6 4 8 4 0 4-4 4-8 2-8 8-10 14-4 16 16 34 34 52 50 12 10 24 20 34 32 6 8 6 8 0 16 0-2 0 0 0 0zM196 880c10-6 12-8 2-18-30-28-60-56-88-82-6-6-12-4-14 4-2 4 0 8-2 10-10 38-18 74-26 112-2 8 2 10 10 8 36-10 72-22 108-32 2 0 6-2 10-2zM656 264c-16 2-22 10-22 26 0 8 0 18 0 26-44-16-50-16-90 0 0-10 0-20 0-30 0-16-4-22-20-26-2-8-2-16-4-24-14-76-80-130-162-128-72 2-136 62-146 136-6 52 12 100 50 134 2 2 4 6 8 8 28 42 58 80 86 122 4 4 4 10 6 14 2 40 36 74 76 80 44 4 84-24 94-64 0-2 0-6 2-10 38 30 74 32 112 2 2 8 4 16 8 22 16 36 54 54 92 48s68-34 72-74c2-10 4-18 10-26 28-38 54-76 82-112 4-8 12-14 18-20 44-50 52-106 28-166-28-60-76-92-142-94-84 0-152 66-156 148 0 4 0 6-2 8zM502 266c0 72-60 134-134 134s-136-60-136-134c0-74 60-136 134-136 76 0 136 60 136 136zM948 266c0 72-60 134-134 134s-136-60-136-134c0-74 60-136 134-136s136 60 136 136zM590 430c-24 0-46-20-46-44 0-26 22-46 46-46s44 22 44 46c0 24-20 44-44 44z" />
<glyph unicode="&#x62;" glyph-name="volume-on-ooyala-defualt" d="M718 398c64 0 116 50 116 114s-50 114-116 114zM136 270h-104c-10 0-18 8-18 20v420c0 12 8 20 18 20h104c2 0 4 0 4-4v-452c2-2 0-4-4-4zM238 318v380c0 14 12 28 26 28h120c2 0 4 0 4 2l230 162c6 4 14 0 14-8v-740c0-6-8-12-14-8l-238 154c0 0-2 0-4 0h-112c-14 0-26 14-26 30zM776 274c-14 0-24 10-24 24s10 24 24 24c104 0 188 84 188 188 0 106-84 190-188 190-14 0-24 10-24 24s10 24 24 24c132 0 238-106 238-238-2-130-108-236-238-236z" />
<glyph unicode="&#x63;" glyph-name="system-replay" d="M484 820c0-6 4-12 10-12 104-2 206-46 274-124 26-30 46-64 60-100 52-130 24-276-78-386 0 0-2-2-2-2-198-184-490-102-582 120-8 20-28 32-50 26-22-8-36-32-26-54 44-108 128-194 234-240 56-24 114-36 172-36 110 0 218 42 308 124 0 0 0 2 0 2 130 134 162 316 100 476-18 46-44 86-74 122-84 98-208 154-336 154-6 0-12-6-12-12v-58zM122 838l292-168c2-2 6 0 6 2v338c0 2-2 4-4 2l-294-168c-2-2-2-4 0-6z" />
<glyph unicode="&#x64;" glyph-name="system-auto" d="M902 50h-780c-54 0-98 44-98 98v728c0 54 44 98 98 98h780c54 0 98-44 98-98v-728c0-54-44-98-98-98zM636 188h140l-204 648h-120l-204-648h140l34 132h178zM510 660l62-230h-122z" />
<glyph unicode="&#x65;" glyph-name="system-close" d="M78 42c-10 0-18 4-26 10-14 14-14 38 0 50l868 868c14 16 38 16 50 0 16-14 16-36 0-50l-866-866c-8-8-16-12-26-12zM946 42c-10 0-18 4-26 10l-866 868c-16 14-16 38 0 52 14 14 36 14 50 0l868-868c14-14 14-36 0-50-8-8-16-12-26-12z" />
<glyph unicode="&#x66;" glyph-name="system-menu" d="M596 836c0-46-38-84-84-84s-84 38-84 84c0 46 38 84 84 84s84-38 84-84zM596 512c0-46-38-84-84-84s-84 38-84 84c0 46 38 84 84 84s84-38 84-84zM596 188c0-46-38-84-84-84s-84 38-84 84c0 46 38 84 84 84s84-38 84-84z" />
<glyph unicode="&#x67;" glyph-name="pause-slick" d="M192 142v736c0 2 2 4 6 4h212c2 0 4-2 4-4v-736M610 142v736c0 2 2 4 4 4h212c4 0 6-2 6-4v-736" />
<glyph unicode="&#x68;" glyph-name="play-slick" d="M870 508l-714-408c-2-2-2 0-2 2v820c0 2 2 4 2 2l712-410c4 0 4-4 2-6z" />
<glyph unicode="&#x69;" glyph-name="system-fullscreen" d="M196 616h-106v272h260v-106h-154zM934 616h-106v166h-154v106h260zM350 136h-260v272h106v-166h154zM934 136h-260v106h154v166h106z" />
<glyph unicode="&#x6a;" glyph-name="system-minimizescreen" d="M190 960h128v-326h-308v128h180zM706 960h128v-198h180v-128h-308zM10 388h308v-324h-128v198h-180zM706 388h308v-126h-180v-198h-128z" />
<glyph unicode="&#x6b;" glyph-name="cc" d="M458 464c-2-68-22-118-56-154-36-34-86-52-150-52-32 0-62 6-90 16-24 12-48 28-64 50-18 22-32 48-42 80-8 32-14 68-14 110v102c0 42 6 78 14 110 10 32 24 58 42 80 18 24 42 38 66 50 26 12 56 16 88 16 66 0 116-18 150-54s52-88 56-156h-120c0 22-2 38-4 52-4 16-8 26-14 34s-16 14-26 18c-10 4-24 6-40 6s-28-2-40-8c-12-6-20-14-28-26-6-14-12-30-14-48-6-22-8-44-8-74v-102c0-28 0-54 4-72 4-20 8-36 14-48 8-14 16-22 26-28 12-6 26-8 44-8 14 0 28 2 38 4 10 4 20 8 26 16 6 10 12 20 14 34 4 14 6 32 6 52 0 0 122 0 122 0zM966 464c-4-68-22-118-58-154-34-34-84-52-150-52-32 0-62 6-88 16-26 12-48 28-66 50s-32 48-40 80c-10 32-16 68-16 110v102c0 42 6 78 16 110 8 32 22 58 42 80 18 24 40 38 66 50s56 16 88 16c66 0 114-18 148-54s54-88 58-156h-120c-2 22-2 38-6 52-2 16-8 26-14 34s-14 14-26 18c-10 4-22 6-38 6s-30-2-42-8c-10-6-20-14-26-26-8-14-14-30-16-48-6-22-8-44-8-74v-102c0-28 2-54 4-72 4-20 8-36 16-48 6-14 16-22 26-28s26-8 42-8c16 0 28 2 38 4 10 4 20 8 26 16 8 10 12 20 16 34 2 14 6 32 6 52 0 0 122 0 122 0zM8 172h1006v-78h-1006z" />
<glyph unicode="&#x6c;" glyph-name="discovery-binoculars" d="M438 746c18 12 38 24 58 28 30 4 54-2 78-20 10-8 12-4 16 4 14 42 40 70 84 80 64 18 130-24 142-90 4-18 12-34 22-50 32-44 64-88 96-134 8-10 16-20 26-30 50-54 74-120 52-194-20-74-64-130-144-152-126-34-248 46-266 176 0 4 0 6 0 10 0 10-2 16-14 20-14 2-20 14-18 30 0 10 0 18 0 26 0 6 0 8-6 6-16-6-30-12-46-14-20-2-38 4-58 12-8 4-12 4-10-8 0-12 0-26-2-38 0-10-6-16-14-18-12-2-14-10-16-20-4-50-24-94-60-130-58-56-152-76-226-44-78 32-128 108-128 194 0 56 18 104 58 144 30 32 50 68 76 100 18 26 36 54 56 78 6 8 8 18 10 28 10 60 60 104 118 104 54-2 98-36 112-88 0-4 0-8 4-10zM964 386c0 84-70 154-154 154s-154-68-154-152c0-88 66-156 154-156 84 0 154 70 154 154zM220 232c86 0 154 70 154 154 0 86-68 154-154 154-84 0-154-68-154-154s68-154 154-154zM510 612c-34 0-60-28-60-60s28-60 60-60c32 0 58 30 58 62 2 32-26 58-58 58z" />
<glyph unicode="&#x6d;" glyph-name="bitrate" d="M888 912v-360c0-10-8-18-18-18h-362c-10 0-18 8-18 18v360c0 10 8 20 18 20h360c12 0 20-10 20-20zM452 384v-276c0-8-8-16-16-16h-276c-8 0-16 8-16 16v276c0 10 8 18 16 18h276c10 0 16-8 16-18zM362 832v-196c0-10-8-18-18-18h-192c-8 0-16 8-16 18v192c0 8 8 16 16 16h198c6 2 12-4 12-12zM828 352v-146c0-10-8-18-16-18h-142c-8 0-16 8-16 18v140c0 10 8 18 16 18h146c8 0 12-6 12-12z" />
<glyph unicode="&#x6e;" glyph-name="system-settings" d="M992 624c-14 56-36 108-66 154-18-18-44-30-76-30-104 0-132 120-84 184-44 26-90 44-140 58-4-54-40-102-106-102-70 2-106 54-108 106-60-12-118-36-168-68 40-66 10-176-90-176-24 0-46 8-62 20-26-46-46-94-60-146 128-12 128-210 0-222 12-54 32-102 60-148 18 22 46 36 82 36 112 0 138-136 74-194 50-32 104-54 162-66 2 54 38 108 110 108 68 0 104-50 106-106 64 16 124 44 174 80-52 64-26 190 82 190 28 0 48-8 66-20 18 38 34 78 44 120-130 10-130 212 0 222zM538 366c-102-16-188 70-172 172 10 62 58 112 122 122 100 16 188-72 170-174-10-62-58-110-120-120z" />
<glyph unicode="&#x6f;" glyph-name="share" d="M1016 748c0-142-116-258-260-258-142 0-258 116-258 258 0 144 116 260 258 260 144 0 260-116 260-260zM270 500c0-70-58-128-128-128-72 0-128 58-128 128 0 72 56 128 128 128 70 0 128-56 128-128zM594 134c0-70-56-128-128-128-70 0-128 58-128 128s58 128 128 128c72 0 128-58 128-128zM200 556l374 188 2-60-374-188zM186 468l306-286-54-24-308 286z" />
<glyph unicode="&#x70;" glyph-name="volume-mute-ooyala-defualt" d="M1008 396c6 6 6 20 0 26l-78 78c-6 6-6 18 0 24l78 78c6 6 6 20 0 26s-18 6-26 0l-78-78c-6-6-18-6-24 0l-78 78c-6 6-18 6-26 0-6-6-6-18 0-26l78-78c6-6 6-18 0-24l-78-78c-6-6-6-18 0-26 6-6 20-6 26 0l78 78c6 6 18 6 24 0l78-78c8-8 20-8 26 0zM136 270h-104c-10 0-18 8-18 20v420c0 12 8 20 18 20h104c2 0 4 0 4-4v-452c2-2 0-4-4-4zM238 318v380c0 14 12 28 26 28h120c2 0 4 0 4 2l230 162c6 4 14 0 14-8v-740c0-6-8-12-14-8l-238 154c0 0-2 0-4 0h-112c-14 0-26 14-26 30z" />
<glyph unicode="&#x71;" glyph-name="fast-forward-modern" d="M60 186l-6 2c-6 4-8 6-8 12v624c0 4 2 8 6 10l6 4 6-4 558-322-558-322zM66 810v-596l516 298zM416 186l-6 2c-6 2-8 6-8 12v144h20v-132l518 300-520 298v-136h-18v150c0 4 2 8 6 10l4 4 6-4 560-322-558-322z" />
<glyph unicode="&#x72;" glyph-name="system-left-arrow" d="M744 1008c8 0 16-2 22-8 12-12 12-32 0-44l-444-444 444-444c12-12 12-32 0-44s-32-12-44 0l-464 466c-12 12-12 32 0 42l464 468c8 6 14 8 22 8z" />
<glyph unicode="&#x73;" glyph-name="system-right-arrow" d="M280 16c-8 0-16 2-22 8-12 12-12 32 0 44l444 444-444 444c-12 12-12 32 0 44s32 12 44 0l464-466c12-12 12-32 0-44l-464-466c-8-6-14-8-22-8z" />
<glyph unicode="&#x74;" glyph-name="system-more-information" d="M512 60c-248 0-452 204-452 452s204 452 452 452c248 0 452-204 452-452s-204-452-452-452zM512 892c-210 0-380-170-380-380s170-380 380-380c210 0 380 170 380 380s-170 380-380 380zM460 716c0 6 2 14 4 20s8 12 12 16c4 4 10 8 16 10s12 4 22 4c8 0 14 0 20-4 6-2 12-6 16-10 6-4 10-10 12-16s4-14 4-20c0-8-2-14-4-20s-6-12-12-18c-4-4-10-8-16-10s-12-4-20-4c-10 0-16 2-22 4-6 4-12 6-16 10-4 6-10 12-12 18s-4 12-4 20zM560 258h-96v318h96z" />
<glyph unicode="&#x75;" glyph-name="discovery-tag" d="M512 244c-38 0-78-2-116 0-16 0-18-4-18-18 2-38 0-74 0-112 0-52-42-92-92-94-52 0-94 42-96 94 0 38 0 76 0 114 0 10-2 16-14 14-22 0-40 0-62 0-52 0-94 44-94 94 0 54 42 94 94 96 22 0 44 0 66 0 8 0 10 2 10 10 0 62 0 126 0 190 0 10-4 10-12 10-22 0-44 0-66 0-50 0-92 42-92 94 0 50 40 92 90 94 22 0 44 0 68 0 8 0 10 2 10 10 0 28-2 58 2 84 8 48 54 82 100 78 52-4 88-44 88-94 0-22 0-44 0-68 0-6 0-10 10-10 80 0 164 0 246 0 10 0 10 4 10 10 0 26 0 50 2 76 4 50 46 88 96 86s90-42 90-94c0-22 2-42 0-64 0-12 6-14 18-14 20 0 40 0 60 0 52-2 92-44 92-94 0-52-40-94-92-94-22 0-44 0-66 0-8 0-10-4-10-12 0-62 0-126 0-190 0-8 2-10 10-10 22 0 44 0 66 0 52 0 92-42 92-94s-40-94-90-94c-22 0-42-2-64 0-12 0-16-2-16-14 2-40 2-78 0-116 0-48-36-88-80-92-50-6-94 24-104 72-4 12-4 26-4 42 0 30 0 62 0 96 0 10-2 12-12 12-40 0-80 2-120 2zM390 642c-10 0-12-4-12-12 0-62 0-124 0-186 0-10 2-12 12-12 82 0 162 0 242 0 12 0 14 2 14 12 0 62 0 124 0 186 0 10-2 12-14 12-40 0-80 0-120 0s-80 0-122 0z" />
<glyph unicode="&#x76;" glyph-name="play-chubby" d="M934 538l-814 472c-20 10-46-4-46-26v-944c0-22 26-38 46-26l814 472c22 12 22 40 0 52z" />
<glyph unicode="&#x77;" glyph-name="play-modern" d="M134 66v892l772-446zM164 904v-784l680 392z" />
<glyph unicode="&#x78;" glyph-name="cc-fill" d="M952 180h-880c-8 0-14 8-14 16v632c0 8 6 16 14 16h880c8 0 14-8 14-16v-632c0-8-6-16-14-16zM382 428c0-18-2-32-4-46-4-10-8-20-14-26s-12-12-20-16c-10-2-20-4-32-4-16 0-28 2-36 8-10 6-18 12-24 22s-10 24-12 42c-2 16-2 36-2 60v86c0 24 0 46 4 62 2 16 6 30 12 40 8 10 14 18 24 22 10 6 22 8 36 8 12 0 24 0 32-4s16-8 22-16c4-6 8-16 12-28 2-12 4-28 6-46h102c-4 58-22 102-48 132-28 32-72 48-126 48-28 0-52-6-74-16-20-8-40-22-56-40s-28-42-36-68c-8-26-12-58-12-92v-88c0-34 4-64 12-92 8-26 20-50 36-68 14-18 34-32 54-40 22-10 48-16 76-16 54 0 96 16 126 44 28 30 46 74 48 132h-106zM788 428c-2-18-2-32-6-46-2-10-6-20-12-26-8-6-14-12-22-16-10-2-20-2-34-2s-26 2-36 8c-8 4-16 12-22 22s-10 24-12 40c-2 18-2 38-2 60v88c0 24 0 44 4 60 2 16 6 32 12 42s14 16 24 22c10 6 22 8 34 8 14 0 26-2 34-4 8-4 16-10 22-16 4-8 8-16 12-30 2-12 4-26 4-44h102c-4 58-20 102-48 132s-70 46-124 46c-28 0-52-6-74-14-22-10-40-24-56-42-16-16-28-40-36-66-8-28-12-60-12-94v-86c0-34 4-66 12-94 8-26 20-48 34-66 16-20 34-32 56-42 22-8 48-14 74-14 56 0 98 14 126 44 30 30 46 72 48 130z" />
<glyph unicode="&#x79;" glyph-name="discovery-trending" d="M656 596c-36-50-72-100-106-148-22-34-46-66-70-100-22-32-54-34-80-4-32 36-66 74-98 112-6 6-8 6-14 0-34-42-66-82-100-122-8-8-10-16-2-28 132-212 430-242 604-62 144 150 146 384 2 534-108 110-240 146-388 104-146-42-236-144-270-292-8-24-8-50-10-74 0-16-8-24-20-24s-22 8-22 24c2 80 24 156 68 226 150 232 478 268 670 66 114-120 148-266 98-426-50-156-162-254-322-288-174-38-352 40-446 190-18 28-16 50 4 76 34 42 70 84 104 126 20 24 48 24 68 2 34-38 70-78 102-116 8-8 12-6 18 2 54 76 110 154 164 232 2 2 6 6 4 8-4 4-8 0-10-2-30-10-58-22-86-34-14-6-26-2-30 10-6 12 0 22 14 28 54 22 106 42 158 64 18 8 32-2 32-20 4-56 10-110 14-166 2-14-4-26-18-28-14 0-22 10-24 24-2 34-4 70-8 106z" />
<glyph unicode="&#x7a;" glyph-name="share-arrow" d="M504 112c92 0 186-2 280 0 94 0 156 88 124 178-16 48-62 80-112 82-12 0-22-2-34 0-14 2-22 12-22 26s8 24 22 24c52 0 104 2 154 0 30-2 48-24 50-54 0-48 2-96 0-144-6-92-84-162-180-164-190 0-376 0-564 0-108 2-184 78-186 184 0 180 0 358 0 538 0 106 78 182 186 182 70 0 138 0 208 0 20 0 36-2 36-24-2-26-18-26-36-26-68 0-136 0-204 0-84 0-138-54-138-138 0-176 0-352 0-526 0-84 52-138 136-138 94 0 186 0 280 0zM848 590c-16 36-30 66-44 96-8 18-16 24-38 22-96-12-168-62-228-132-62-70-104-152-140-240-2-6-6-14-8-22-4-8-4-20-18-18-10 4-6 14-6 22 4 34 6 66 12 98 16 94 42 186 94 268 56 88 132 150 232 178 18 6 18 10 12 24-10 20-18 42-26 62-6 12-2 18 12 14 92-28 184-56 276-84 10-4 12-8 8-18-46-86-90-174-138-270z" />
<glyph unicode="&#xe900;" d="M204.226 704.61c0 28.188 22.869 51.057 51.057 51.057h561.62v153.169c0 28.188-22.869 51.057-51.057 51.057h-714.789c-28.188 0-51.057-22.869-51.057-51.057v-714.789c0-28.188 22.869-51.057 51.057-51.057h153.169v561.62z" />
<glyph unicode="&#xe901;" d="M970.071 653.555h-612.676c-28.188 0-51.057-22.869-51.057-51.057v-612.676c0-28.188 22.869-51.057 51.057-51.057v0h612.676c28.188 0 51.057 22.869 51.057 51.057v0 612.676c0 28.188-22.869 51.057-51.057 51.057zM842.43 245.103h-127.641v-127.641c0-14.147-11.381-25.528-25.528-25.528h-51.057c-14.147 0-25.528 11.381-25.528 25.528v127.641h-127.641c-14.147 0-25.528 11.381-25.528 25.528v51.057c0 14.147 11.381 25.528 25.528 25.528h127.641v127.641c0 14.147 11.381 25.528 25.528 25.528h51.057c14.147 0 25.528-11.381 25.528-25.528v-127.641h127.641c14.147 0 25.528-11.381 25.528-25.528v-51.057c0-14.147-11.381-25.528-25.528-25.528z" />
<glyph unicode="&#xe902;" d="M966.562-63.894h-602.997c-31.591 0-57.438 25.847-57.438 57.438v602.997c0 31.591 25.847 57.438 57.438 57.438h602.997c31.591 0 57.438-25.847 57.438-57.438v-602.997c0-31.591-25.847-57.438-57.438-57.438z" />
<glyph unicode="&#xe903;" d="M639.163 494.96v-208.267c-10.53 3.829-21.805 6.275-33.719 6.275-55.843 0-101.049-45.1-101.049-101.049s45.1-101.049 101.049-101.049c51.801 0 94.242 39.25 99.879 89.774h1.17v246.985h89.774v67.331h-157.105z" />
</font>
</defs>
</svg>
