<?xml version="1.0" standalone="no"?>
<!DOCTYPE svg PUBLIC "-//W3C//DTD SVG 1.1//EN" "http://www.w3.org/Graphics/SVG/1.1/DTD/svg11.dtd" >
<svg xmlns="http://www.w3.org/2000/svg" xmlns:xlink="http://www.w3.org/1999/xlink" version="1.1">
<metadata>
Created by FontForge 20170910 at Thu Oct 12 17:10:54 2017
 By Jimmy Wärting
</metadata>
<defs>
<font id="ooyala-slick-type" horiz-adv-x="512" >
  <font-face 
    font-family="ooyala-slick-type"
    font-weight="400"
    font-stretch="normal"
    units-per-em="512"
    panose-1="2 0 5 9 0 0 0 0 0 0"
    ascent="480"
    descent="-32"
    x-height="422"
    cap-height="429"
    bbox="2 3 510.414 506.882"
    underline-thickness="0"
    underline-position="0"
    unicode-range="U+0041-007A"
  />
<missing-glyph 
 />
    <glyph glyph-name=".notdef" 
 />
    <glyph glyph-name=".notdef" 
 />
    <glyph glyph-name=".null" horiz-adv-x="0" 
 />
    <glyph glyph-name="nonmarkingreturn" 
 />
    <glyph glyph-name="share-atom" unicode="A" 
d="M36 118q2 36 34 51q34 15 61 -9q5 -5 11 -1q20 14 31 21q5 2 2 8q-15 32 -3.5 66.5t42.5 51.5q18 8 28 9q4 0 4 5v49q0 4 -4 5q-36 10 -42 47q-4 23 10.5 42t37.5 23q23 3 42 -11t22 -36q4 -25 -9.5 -43t-37.5 -23q-3 0 -3 -4v-48q0 -5 5 -5q54 -8 74 -58q14 -37 -3 -70
q-2 -4 2 -8q22 -14 33 -22q4 -3 8 1q28 28 64 9q16 -7 25 -23.5t7 -33.5q-2 -18 -14 -31.5t-30 -17.5q-32 -8 -54 16q-23 27 -12 58q1 7 -4 10q-11 7 -31 21q-4 3 -8 -1q-26 -28 -63.5 -29.5t-65.5 24.5q-2 1 -4.5 4.5t-4.5 3.5q-3 0 -12 -7q-2 -1 -11 -7t-14 -9
q-4 -2 -3 -8q9 -22 -1.5 -44t-33.5 -30q-23 -7 -44 4t-29 34q-2 10 -2 16z" />
    <glyph glyph-name="share-globe" unicode="B" 
d="M256 12q-101 0 -172.5 71.5t-71.5 172.5t71.5 172.5t172.5 71.5t172.5 -71.5t71.5 -172.5t-71.5 -172.5t-172.5 -71.5zM256 479q-92 0 -157.5 -65.5t-65.5 -157.5t65.5 -157.5t157.5 -65.5t157.5 65.5t65.5 157.5t-65.5 157.5t-157.5 65.5zM211 399l14 -13v-12v1
q2 1 12 -1l20 -3q20 0 20 3v14q14 10 16 12q1 3 0 9l-6 12h-19l-21 -1l-6 9v6q-2 1 -10 -6q-6 -6 -40 -13q-5 -1 1 -2h4l-5 -22l26 15zM125 344l-23 -37v-15l-10 -25l5 -18l2 -12l4 -16q6 -12 9 -14l12 -6q0 -10 4 -10l8 -5l4 -11l15 -18q7 1 10 -7l3 -8q4 -11 0 -16l-6 -9
l24 -22l21 -7q4 -7 21 -11l17 -3l21 3l16 15h19l7 -3l8 20l3 29v12l-2 2q-2 1 -3 2l-7 7l-8 4l-20 19l-16 8l-25 -5l-16 1q-9 -6 -13 -7l-8 -2l-11 -2q-6 -3 -14 -3h-14l-4 1l-4 3l-3 5l-4 8q1 7 0 10l-2 2q0 -1 0 2t-5 0l5 5q7 5 14 9t11 5l4 2l20 10l1 13v19l-2 12
q-4 21 0 27l1 11v12q-8 -2 -18 14q-6 8 -1 9q2 1 -3 3q-1 1 -5 3l-22 11q-12 -3 -19 -4q-3 -1 -5.5 -3.5l-4.5 -4.5l-1 -3l2 -19zM406 360l10 -12l3 -14l4 -10v-6l-2 -12l8 -26l8 -19l3 -15l2 -10q-3 1 -4 -4q-1 -1 -1 -3l-8 -25l-4 -11q-1 -5 -1.5 -6.5t-1 -2t-1.5 -1
t-3.5 -4t-6.5 -9.5l-7 -9v1q0 6 -9 0l-7 -6q2 1 1.5 0.5l-2.5 -2.5l-3.5 -3.5t-1.5 -0.5t-1 0.5t-3 0.5t-7 -1l-7 -1q2 3 -4 4l-6 14q6 3 14 9t20.5 18.5t10.5 20.5q-5 7 -15 0.5t-27.5 -13.5t-26.5 -1q-3 2 -6 5l-2 1q5 -6 -5 -2l-15 6q-8 3 -9 4q-5 4 -18 12l-12 8h1
q4 -1 5 1q0 2 -2 5q-4 6 -3.5 7.5t-0.5 15.5q-1 11 -12 11q-2 0 10 13l6 6q-3 -3 -4 -2l1 2q3 8 6 12q1 2 3 8l4 8q3 4 4 4l28 -25q24 18 28 24q2 2 -8.5 8.5t-19 14t-2.5 11.5q6 5 11.5 7t9.5 2h3h16h17l4 6l12 -1l14 -4l10 -1h6z" />
    <glyph glyph-name="share-uniform" unicode="C" 
d="M489 426q0 -32 -23 -55t-55 -23t-55 23t-23 55q0 33 23 56t55 23t55 -23t23 -56zM179 279q0 -32 -23 -55t-55 -23t-55 23t-23 55t23 55t55 23t55 -23t23 -55zM470 86q0 -33 -23 -56t-55 -23q-33 0 -56 23t-23 56q0 32 23 55t56 23q32 0 55 -23t23 -55zM185 309l-2 3
q-2 6 3 9l131 71q7 2 10 -3l1 -3q4 -5 -2 -9l-132 -71q-6 -4 -9 3zM183 231l2 3q3 6 10 2l120 -85q5 -3 1 -9l-2 -3q-4 -6 -9 -2l-120 85q-6 4 -2 9z" />
    <glyph glyph-name="skip-chubby" unicode="D" 
d="M385 269l-339 196q-8 4 -15.5 -0.5t-7.5 -12.5v-392q0 -9 7.5 -13.5t15.5 0.5l339 195q7 5 7 13.5t-7 13.5zM471 54h-20q-16 0 -16 16v372q0 16 16 16h20q6 0 10.5 -4.5t4.5 -11.5v-372q0 -7 -4.5 -11.5t-10.5 -4.5z" />
    <glyph glyph-name="skip-modern" unicode="E" 
d="M483 62q-5 0 -5 6v377q0 6 5 6q6 0 6 -6v-377q0 -6 -6 -6zM33 36l-5 2q-5 2 -5 8v426l4 3q3 2 7 0l379 -218l-377 -218zM36 458v-403l350 202z" />
    <glyph glyph-name="share-bubble" unicode="F" 
d="M481 287q-1 -53 -42 -94q-6 -8 -4 -15q12 -72 19 -107q1 -2 1 -5q2 -4 -1 -5q-2 -1 -5 1q-5 4 -15.5 11t-15.5 10q-12 8 -74 49q-6 3 -11 2q-118 -30 -217 25q-55 32 -75 80q-30 75 28 138q41 46 112 64q108 26 204 -20q59 -30 82 -78q14 -25 14 -56zM122 323
q-14 0 -23.5 -9.5t-9.5 -23.5t9.5 -23.5t23.5 -9.5t24 9.5t10 23.5t-10 23.5t-24 9.5zM256 323q-14 0 -23.5 -9.5t-9.5 -23.5t9.5 -23.5t23.5 -9.5t23.5 9.5t9.5 23.5t-9.5 23.5t-23.5 9.5zM390 323q-14 0 -24 -9.5t-10 -23.5t10 -23.5t24 -9.5t23.5 9.5t9.5 23.5t-9.5 23.5
t-23.5 9.5z" />
    <glyph glyph-name="skip-slick" unicode="G" 
d="M391 255l-319 -184q-2 0 -2 1v368q1 1 2 1l187 -108l132 -76q1 0 1 -1t-1 -1zM436 72q-5 0 -5 5v359q0 5 5 5t5 -5v-359q2 -5 -5 -5z" />
    <glyph glyph-name="system-20skip" unicode="H" 
d="M150 52q10 18 -3 35q-39 54 -33.5 121t53.5 114q49 47 121 52v-71q65 38 153 89q-26 15 -77.5 44.5t-77.5 44.5v-64q-2 -1 -4.5 -1h-5.5q-82 -8 -138 -64q-81 -81 -64 -195q11 -74 65 -125zM310 102h-87v20l40 51q3 4 7 10q0 1 1.5 4.5t2.5 5.5q1 1 2 4l1 3q1 2 1 6
q0 8 -4 16q-2 5 -9 5q-5 0 -7 -1q0 -1 -2 -2.5t-3 -2.5q-1 -2 -3 -8q0 -1 -0.5 -5t-0.5 -5h-28q0 10 3 19q2 6 8 16q8 6 14 10q10 4 19 4t17 -3q5 -2 13 -8q6 -8 8 -14q2 -10 2 -17q0 -10 -1 -14q-5 -13 -6 -14q-7 -11 -9 -14q-6 -10 -10 -15l-19 -28h49zM412 162
q0 -16 -3 -28q-3 -11 -9 -19q-8 -10 -13 -12q-7 -3 -17 -3t-17 3q-7 4 -13 12t-9 19q-3 12 -3 28v26q0 16 3 28q2 8 8 20q9 9 14 11q7 3 17 3q8 0 17 -3q8 -5 13 -11q6 -10 9 -20q3 -12 3 -28v-26zM384 193q0 3 -0.5 8.5t-0.5 7.5q-2 8 -3 11q-2 2 -4 6q-2 1 -6 1t-6 -1
q-3 -1 -5 -6q-1 -3 -3 -11q-1 -4 -1 -16v-34q0 -4 0.5 -9.5t0.5 -7.5q2 -8 3 -10q4 -6 5 -7t6 -1q4 0 6 1q0 1 1.5 3t2.5 4q2 4 2 10q1 4 1 17z" />
    <glyph glyph-name="bitrate-mm-ooyala-large" unicode="I" 
d="M317 418v-139q0 -11 -11 -11h-140q-10 0 -10 11v139q0 11 10 11h140q11 0 11 -11zM140 206v-109q0 -8 -8 -8h-109q-8 0 -8 8v109q0 9 8 9h109q8 0 8 -9zM103 388v-79q0 -6 -6 -6h-79q-6 0 -6 6v79q0 6 6 6h79q6 0 6 -6zM416 289h-28q-5 0 -5 5v28q0 5 5 5h28q5 0 5 -5
v-28q0 -5 -5 -5zM489 83h-64q-10 0 -10 11v64q0 10 10 10h64q11 0 11 -10v-64q0 -11 -11 -11zM381 196h-36q-6 0 -6 6v36q0 6 6 6h36q7 0 7 -6v-36q-2 -6 -7 -6zM269 165h-28q-5 0 -5 4v29q0 4 5 4h28q4 0 4 -4v-29q0 -4 -4 -4z" />
    <glyph glyph-name="discovery-graph" unicode="J" 
d="M210 326q0 -9 -2 -12q-2 -4 3 -11q12 -12 36 -36.5t36 -36.5q2 -2 6 -1q23 12 43 -1q3 -3 7 1q15 20 43.5 61t42.5 62q3 4 0 7q-19 26 0 52q22 25 50 12q28 -12 25 -44q-5 -31 -36 -36q-11 0 -13 1q-6 1 -10 -4l-90 -129q-2 -4 -1 -8q5 -20 -8 -36.5t-33 -16.5
q-22 0 -34.5 17.5t-5.5 38.5q3 6 -2 11q-24 23 -70 71q-3 3 -9 1q-14 -9 -33 -4q-4 2 -8 -3q-10 -20 -30.5 -60t-30.5 -60q-3 -5 1 -9q21 -24 5 -52q-8 -11 -21 -16.5t-26 -1.5q-31 10 -31 41q0 32 31 40q5 2 15 2q4 -2 6 3q11 21 33 63.5t33 63.5q2 5 -1 8q-12 25 3 46
t41 16q27 -4 33 -32q2 -4 2 -8zM136 326q0 -13 9.5 -22.5t21.5 -9.5q13 0 22.5 9t9.5 22q1 13 -8.5 22.5t-22.5 9.5t-22.5 -9t-9.5 -22zM459 417q-13 0 -22.5 -9t-9.5 -22t9 -22.5t22 -9.5t22.5 9t9.5 22t-9 22t-22 10zM341 193q0 12 -9.5 21.5t-22.5 9.5t-22.5 -9.5
t-8.5 -22.5q0 -13 9.5 -22t22.5 -9t22 9.5t9 22.5zM88 124q0 13 -9 22.5t-22 9.5t-22.5 -9t-9.5 -22t9 -22.5t22 -9.5t22.5 9t9.5 22z" />
    <glyph glyph-name="fast-forward-slick" unicode="K" 
d="M330 255l-319 -184q-1 0 -1 1v368q0 1 1 1l187 -108l132 -76q1 0 1 -1t-1 -1zM502 255l-319 -184q-2 0 -2 1v75q0 3 2 3l175 104q2 1 2 2.5t-2 2.5l-175 104q-2 2 -2 3v74q1 1 2 1l319 -184q1 0 1 -1t-1 -1z" />
    <glyph glyph-name="system-logo-ooyala" unicode="L" 
d="M104 255q0 18 11.5 29t28.5 11t28.5 -11t11.5 -29q0 -17 -11.5 -28t-28.5 -11t-28.5 11t-11.5 28zM172 255q0 13 -8 21t-20 8t-20 -8t-8 -21q0 -12 7.5 -20t20.5 -8q12 0 20 8t8 20zM191 255q0 18 11.5 29t28.5 11t28.5 -11t11.5 -29q0 -17 -11.5 -28t-28.5 -11t-28.5 11
t-11.5 28zM259 255q0 13 -8 21t-20 8t-20 -8t-8 -21q0 -12 8 -20t20 -8t20 8t8 20zM265 295h14l22 -41l21 41h13l-27 -53v-24h-14v23zM327 218h-13l34 77h1l34 -77h-13l-4 9h-35zM349 271l-13 -31h25zM390 295h13v-68h33l-4 -9h-42v77zM453 218h-12l34 77l34 -77h-12l-5 9
h-35zM475 271l-13 -31h25zM505 284q-1 -2 -5 -2q-3 0 -5 2t-2 5q0 1 2 5q4 2 5 2q3 0 5 -2t2 -5q2 -3 -2 -5zM496 293q-2 -2 -2 -4q0 -3 2 -5t4 -2q1 0 5 2q2 2 2 5q0 2 -2 4t-5 2t-4 -2zM500 293q2 0 2 -1q1 0 1 -2q0 -1 -1 -1q0 -1 -1 -1q1 0 2 -1v-1v-1h-1v1q0 1 -1 2h-1
h-1v-3h-2v8h3zM502 292h-2h-1v-3h2h1l1 1zM56 283q0 -13 -13 -13t-13 13q0 12 13 12q5 0 9 -3.5t4 -8.5zM28 263q0 -13 -13 -13q-12 0 -12 13q0 12 12 12q13 0 13 -12zM38 230q0 -13 -12 -13q-13 0 -13 13t13 13q12 -2 12 -13zM73 230q0 -13 -13 -13q-12 0 -12 13t12 13
q13 -2 13 -13zM83 263q0 -13 -12 -13q-13 0 -13 13q0 12 13 12q12 0 12 -12v0z" />
    <glyph glyph-name="bitrate-video-quailty" unicode="M" 
d="M138 214l50 215h67l-86 -297h-63l-84 297h66zM489 258q0 -41 -10 -65q-10 -26 -29 -42l41 -37l-38 -35l-55 50h-7q-1 0 -4 -0.5t-5 -0.5q-22 0 -43 8q-22 10 -34 25q-15 19 -22 40q-8 27 -8 57v45q0 32 8 56q8 26 22 41q12 15 34 25q17 8 43 8q27 0 44 -8q22 -10 34 -25
q15 -16 22 -41q7 -22 7 -56v-45zM429 304q0 21 -3 36q-3 14 -9 25q-7 10 -15 14t-20 4t-21 -4q-7 -3 -14 -14q-8 -13 -10 -25q-3 -15 -3 -36v-46q0 -22 3 -37q3 -13 10 -24q6 -10 14 -15q9 -4 21 -4t20 4q9 4 15 15q6 9 9 24t3 37v46z" />
    <glyph glyph-name="discovery-compas" unicode="N" 
d="M381 270q-12 2 -14 -12q0 -14 13 -14q5 -1 9.5 3t4.5 9q0 14 -13 14zM130 268q-12 0 -12 -11t11 -13q11 0 13 11q0 13 -12 13zM417 385q53 -67 44 -152t-76 -137q-67 -53 -152 -43.5t-138 76.5t-43.5 151.5t76.5 137.5t151.5 43.5t137.5 -76.5zM155 384
q-53 -42 -60.5 -109t34.5 -119q41 -53 108 -60.5t120 34.5q53 41 60.5 108t-34.5 120t-108.5 60.5t-119.5 -34.5zM52 383l82 71q2 2 1 5.5t-5 4.5l-100 33q-3 1 -5 -0.5t-1 -4.5l20 -104q0 -4 3 -5.5t5 0.5zM461 129l-82 -70q-2 -2 -1 -5.5t4 -4.5l100 -34q3 -1 5 0.5t1 4.5
l-18 104q0 4 -3.5 5.5t-5.5 -0.5zM278 281l-86 -23l63 -64zM260 317l5 6l55 -56l-5 -5z" />
    <glyph glyph-name="pause-modern" unicode="O" 
d="M197 43h-108v426h108v-426zM104 58h78v396h-78v-396zM423 43h-108v426h108v-426zM330 58h78v396h-78v-396z" />
    <glyph glyph-name="bitrate-list" unicode="P" 
d="M448 393h-412q-8 0 -13 5.5t-5 12.5t5 12.5t13 5.5h412q8 0 13 -5.5t5 -12.5t-5 -12.5t-13 -5.5zM323 255h-287q-8 0 -13 5.5t-5 12.5t5 12.5t13 5.5h287q7 0 12 -5.5t5 -12.5t-5 -12.5t-12 -5.5zM217 117h-181q-8 0 -13 5.5t-5 12.5t5.5 12.5t12.5 5.5h181q7 0 12 -5.5
t5 -12.5q0 -18 -17 -18z" />
    <glyph glyph-name="pause-chubby" unicode="Q" 
d="M179 20h-92q-16 0 -16 16v440q0 16 16 16h92q16 0 16 -16v-440q0 -6 -5 -11t-11 -5zM425 20h-92q-16 0 -16 16v440q0 16 16 16h92q16 0 16 -16v-440q0 -6 -4.5 -11t-11.5 -5z" />
    <glyph glyph-name="R" unicode="R" horiz-adv-x="518" 
d="M320 337v120q0 9 -6.5 15.5t-15.5 6.5h-92q-9 0 -15.5 -6.5t-6.5 -15.5v-120h-120q-9 0 -15.5 -6.5t-6.5 -15.5v-92q0 -9 6.5 -15.5t15.5 -6.5h120v-119q0 -10 6.5 -16.5t15.5 -6.5h92q9 0 15.5 6.5t6.5 16.5v119h119q10 0 16.5 6.5t6.5 15.5v92q0 9 -6.5 15.5t-16.5 6.5
h-119zM251.5 219q-20.5 0 -35 14.5t-14.5 35t14.5 35t35 14.5t35 -14.5t14.5 -35t-14.5 -35t-35 -14.5zM253 442l38 -54q1 -1 -1 -2h-1h-75q-1 0 -1 1v1l37 54q1 1 3 0v0zM424 270v-1q1 -1 0 -2l-53 -37l-1 -1q-2 0 -2 2v75v1q1 1 3 0zM253 96v0q-2 -1 -3 0l-37 53v1
q0 2 1 2h75h1q2 -1 1 -3zM79 270l53 37q2 1 3 0v-1v-75q0 -2 -2 -2l-1 1l-53 37q-1 1 0 2v1z" />
    <glyph glyph-name="volume-mute-bars" unicode="S" 
d="M316 197q-2 1 -4 3q-31 33 -64 64q-3 5 -8 0q-42 -42 -63 -64q-4 -4 -8 0l-5 5t-5 6q0 3 10 11q10 10 28.5 29.5t28.5 28.5q4 3 0 7l-64 64q-5 5 0 8l5 5t6 5q1 0 3 -2t4 -4.5t4 -3.5l57 -57q4 -5 8 0l64 64q3 5 8 0l3.5 -3.5l4 -4t1.5 -3.5t-1.5 -3.5l-4 -4l-3.5 -3.5
q-38 -38 -58 -57q-3 -3 0 -7q43 -43 65 -64q4 -5 0 -9q-3 -2 -9 -8q-2 -2 -3 -2zM160 66v48q0 6 5 6h65q6 0 6 -5v-98q0 -5 -6 -5h-65q-6 0 -6 5q1 16 1 49zM355 66v-49q0 -6 -5 -6h-66q-5 0 -5 5v99q0 5 5 5h66q5 0 5 -6v-48zM41 49v34q0 5 5 5h67q5 0 5 -5v-66q0 -5 -5 -5
h-67q-5 0 -5 4v33zM435 12h-32q-5 0 -5 5v65q0 6 5 6h65q7 0 7 -6v-65q0 -6 -7 -6q-11 1 -33 1z" />
    <glyph glyph-name="fast-forward-chubby" unicode="T" 
d="M194 177q-38 -22 -56 -32l-108 -63q-11 -6 -18 2q-3 4 -3 9v326q0 8 6.5 11.5t14.5 -0.5q63 -37 133 -77q18 -10 26 -16q5 -3 5 3q0 51 -1 77q0 9 6.5 13t15.5 0q46 -27 139 -80.5t139 -80.5q9 -5 9 -13t-9 -13q-46 -27 -138.5 -80.5t-138.5 -80.5q-8 -5 -15 -1t-7 14v82
z" />
    <glyph glyph-name="volume-on-bard" unicode="U" 
d="M113 11h-71q-2 0 -2 3v352q0 3 2 3h72q2 0 2 -3v-353q0 -2 -3 -2zM232 11h-71q-3 0 -3 3v185q0 3 3 3h71q2 0 2 -3v-185q0 -3 -2 -3zM351 11h-71q-2 0 -2 3v484q0 3 2 3h71q3 0 3 -3v-485q0 -2 -3 -2zM470 11h-71q-3 0 -3 3v210q0 3 3 3h71q3 0 3 -3v-211q-2 -2 -3 -2z
" />
    <glyph glyph-name="bitrate-bars" unicode="V" 
d="M37 129h91v-121h-91v121zM37 221h91v-61h-91v61zM210 253h92v-154h-92v154zM210 69h92v-61h-92v61zM210 344h92v-61h-92v61zM383 370h92v-228h-92v228zM383 98h92v-90h-92v90zM384 504h91v-89h-91v89z" />
    <glyph glyph-name="W" unicode="W" 
d="M319 340h120q9 0 15.5 -6.5t6.5 -15.5v-92q0 -9 -6.5 -15.5t-15.5 -6.5h-120v-120q0 -9 -6.5 -15.5t-15.5 -6.5h-92q-9 0 -15.5 6.5t-6.5 15.5v120h-120q-9 0 -15.5 6.5t-6.5 15.5v92q0 9 6.5 15.5t15.5 6.5h120v120q0 9 6.5 15.5t15.5 6.5h92q9 0 15.5 -6.5t6.5 -15.5
v-120zM251 222q20 0 34.5 14.5t14.5 35t-14.5 34.5t-34.5 14t-34.5 -14t-14.5 -34.5t14.5 -35t34.5 -14.5zM252 444v1q-1 1 -2 -1l-38 -53v-1q0 -2 2 -2h75l1 1t0 2zM423 272l-53 38q-1 1 -2 0l-1 -1v-75q0 -2 2 -2h1l53 38q2 1 1 2h-1zM252 99l38 53q1 1 0 2l-1 1h-75
q-2 0 -2 -2v-1l38 -53q1 -1 2 0v0zM78 272v0q-1 -1 0 -2l53 -38h1q2 0 2 2v75v1q-1 1 -3 0z" />
    <glyph glyph-name="bitrate-kbs" unicode="X" 
d="M76 231l-18 -22v-64h-45v222h45v-97l14 24l41 73h55l-64 -98l65 -124h-53zM190 145v222h69q18 0 30 -4q16 -6 22 -11q9 -8 14 -19q4 -11 4 -27q0 -10 -1 -15t-5 -13q-1 -2 -2.5 -4t-3.5 -4.5t-3 -3.5q-6 -5 -12 -7q6 -1 14 -7q6 -4 10 -11q3 -4 5 -15q2 -10 2 -16
q0 -32 -18 -48q-19 -17 -51 -17h-74zM236 274h23q13 0 20 7q6 7 6 21q0 15 -6 21q-6 7 -20 7h-23v-56zM236 242v-59h28q8 0 11 2q5 1 8 6q4 6 4 9q2 8 2 11q0 13 -5 23q-5 8 -18 8h-30zM454 203q0 2 -0.5 5.5t-0.5 5.5q-2 6 -5 8q-2 2 -10 8q-13 6 -17 8q-11 4 -23 11
q-12 6 -20 14q-7 7 -14 19q-5 9 -5 25t5 25q7 14 14 20q11 8 22 12q15 5 29 5q15 0 28 -5q13 -6 22 -15q10 -10 14 -21q5 -15 5 -28h-44q0 5 -2 13q-2 7 -5 10q-3 5 -8 7q-6 2 -11 2q-8 0 -12 -2q-3 -1 -7 -5q-3 -3 -5 -9t-2 -10q0 -6 3 -10q1 -1 3 -3.5t4 -4.5q1 0 4.5 -3
t5.5 -4l14 -7q15 -4 27 -12q8 -4 19 -15q10 -11 12 -20q4 -9 4 -24q0 -14 -5 -26q-4 -10 -14 -20q-9 -7 -21 -12q-16 -4 -29 -4q-10 0 -28 4q-14 5 -25 14q-9 8 -17 22q-7 13 -7 33h45q0 -7 2 -17q5 -9 7 -11q4 -4 9 -6q8 -2 14 -2q8 0 11 2q3 1 7 5q3 3 4 8q3 6 3 10z" />
    <glyph glyph-name="Y" unicode="Y" horiz-adv-x="518" 
d="M48 269.5q0 85.5 60.5 146.5t146.5 61t146.5 -61t60.5 -146.5t-60.5 -146.5t-146.5 -61t-146.5 61t-60.5 146.5zM223 383l5 -5l29 28l26 -26l5 5l5 5l-31 31l-5 5l-5 -5l-34 -33zM362 233l-5 5l29 29l-27 26l5 5l5 5l31 -32l5 -4l-5 -5l-33 -34zM288 162l-5 5l-28 -29
l-27 26l-5 -5l-5 -4l32 -32l5 -5l4 5l34 34zM149 298l5 -5l-29 -29l27 -26l-5 -5l-5 -5l-31 31l-5 5l5 5l33 34z" />
    <glyph glyph-name="discovery-flame" unicode="Z" 
d="M326 48q28 69 8 137t-71 104q0 -5 0.5 -11t1.5 -13t1 -11q6 -50 4 -75q-2 -20 -8 -32q0 -1 -2 -3t-2 -3q-5 20 -21.5 53t-19.5 40q-1 -2 -4 -10q-2 -6 -4 -9q-7 -25 -22 -47q-12 -17 -20 -37q-11 -29 2 -68q4 -7 7 -17l-3 1q-49 27 -75 62q-32 40 -19 102q4 17 24 59
q22 44 25 70q13 -19 17 -65q3 0 3 2q50 62 68 113q12 37 9 67v5q3 0 15 -5q45 -26 76 -80q11 -19 25 -59q2 -6 3 -7q11 10 14 30.5t-5 39.5q2 1 6 -3q63 -63 78 -138q16 -78 -40 -140q-29 -32 -66 -51q-3 -2 -5 -1z" />
    <glyph glyph-name="bracketleft" unicode="[" horiz-adv-x="518" 
d="M43 269.5q0 -86.5 61.5 -147.5t148 -61t147.5 61t61 147.5t-61 148t-147.5 61.5t-148 -61.5t-61.5 -148zM220 384l5 -5l29 29l27 -27l4 5l5 5l-31 32l-5 5l-5 -5l-34 -34zM360 233l-5 5l29 29l-27 26l5 5l5 5l32 -31l5 -5l-5 -5l-34 -34zM285 161l-4 5l-29 -29l-27 27
l-5 -5l-5 -5l32 -32l5 -5l5 5l33 34zM145 298l5 -5l-28 -28l26 -27l-5 -5l-5 -5l-31 32l-5 5l5 5l34 33z" />
    <glyph glyph-name="backslash" unicode="\" 
d="M251.5 216q5.5 0 10 -3t6.5 -9l19 -46h-72l19 46q2 6 7 9t10.5 3zM460 141q0 -9 -5.5 -14t-13.5 -5h-99q-9 0 -16 4.5t-11 12.5l-30 73q-5 11 -14.5 17.5t-20.5 6.5t-20.5 -6.5t-14.5 -17.5l-30 -73q-4 -9 -11 -13t-16 -4h-99q-9 0 -14 5t-5 14v210q0 8 5.5 13.5
t13.5 5.5h382q9 0 14 -6t5 -13v-210v0zM364 217q17 1 27.5 11.5t10.5 27t-10.5 27t-27 10.5t-27 -10.5t-10.5 -27t10.5 -27.5t26.5 -11v0zM136 217q16 1 26.5 11.5t10.5 27t-10.5 27t-27 10.5t-27 -10.5t-10.5 -27t10.5 -27.5t27.5 -11v0zM78 407q0 9 5.5 14t14.5 5h304
q9 0 14 -5q6 -5 6 -14v-19h-344v19v0z" />
    <glyph glyph-name="bracketright" unicode="]" 
d="M215 162q1 3 9 22l10 23q2 5 6.5 8.5t10.5 3.5t10.5 -3.5t6.5 -8.5l19 -45h-72v0zM461 142q0 -8 -5.5 -13.5t-13.5 -5.5h-99q-9 0 -16 5t-11 13l-30 73q-5 12 -14.5 18t-20.5 6t-20.5 -6.5t-14.5 -17.5l-30 -73q-4 -8 -11.5 -13t-15.5 -5h-99q-9 1 -14 6t-5 13v210
q0 9 5.5 14t13.5 5h382q8 -1 13.5 -6t5.5 -13v-210v0zM365 219q17 0 27.5 11t10.5 27t-10.5 26.5t-27 10.5t-27.5 -10.5t-11 -26.5t11 -27t27 -11v0zM136 219q17 0 27.5 11t10.5 27t-10.5 26.5t-27 10.5t-27 -10.5t-10.5 -26.5t10.5 -27t26.5 -11v0zM79 409q0 8 5.5 13.5
t14.5 6.5h304q9 -1 14.5 -6.5t5.5 -13.5v-19h-344v19v0z" />
    <glyph glyph-name="discovery-mm-ooyala-large" unicode="a" 
d="M158 327q-2 8 -10 6q-10 -4 -6 -11q2 -10 10 -6q10 2 6 11zM157 299l-23 5q-1 0 -1 -1l3 -42l2 -1l20 38q0 1 -1 1zM144 346l20 -4q3 0 3 2l-2 43q0 1 -1.5 1.5t-2.5 -0.5l-19 -39q0 -3 2 -3zM53 389l48 45q2 1 1 3t-3 3l-62 18q-4 0 -4 -3l14 -63q2 -7 6 -3zM101 394
l-6 -19l-13 15zM193 402l5 -2l-7 -13l-5 3zM201 398l5 -3l-7 -13l-5 3zM91 270l9 7l7 -10l-9 -7zM86 330q0 -5 -5 -5t-5 5q0 4 5 4t5 -4zM231 347q0 -5 -4 -5q-5 0 -5 5q0 4 5 4q4 0 4 -4zM149 411q0 -4 -5 -4q-4 0 -4 4q0 5 4 5q5 0 5 -5zM98 440q24 13 54 11
q67 -4 101 -64q12 -23 14 -54q0 -6 -4 -8.5t-9 -0.5t-5 8q-2 32 -19 57t-46 36.5t-59 5.5q-31 -8 -52.5 -30.5t-25.5 -53.5q-6 -35 11 -66t50 -44q1 0 2 -1q8 -5 5 -12q-4 -7 -13 -4q-23 9 -36 23q-32 29 -38.5 71t16.5 79q2 2 2 4q2 0 2 -4q2 -7 7 -2q17 17 26 25
q12 10 17 16q3 4 0 8zM98 440q6 -4 1 -9q-30 -28 -44 -41q-5 -5 -7 2v2.5t-1 2.5q-6 23 -13 56q-1 3 0.5 4t4.5 0q9 -3 27 -8.5t27 -7.5l2 -1h3zM328 132q-11 1 -11 13v13q-17 -6 -23.5 -6t-21.5 6v-15q0 -11 -10 -13q0 -2 -1 -6t-1 -6q-5 -29 -27.5 -47t-53.5 -17
q-27 1 -48 20.5t-25 47.5q-5 40 25 67l4 4q7 11 21.5 30.5t21.5 30.5q1 1 2 4l1 3q1 15 12 26.5t26 13.5q16 1 29.5 -8t17.5 -24q0 -3 1 -5q29 23 56 1q2 8 4 11q13 29 46 24q15 -2 25 -12t11 -25q2 -9 5 -13t18 -24.5t23 -31.5q1 -2 9 -10q32 -37 14 -83q-21 -45 -71 -47
q-31 0 -53.5 21.5t-24.5 52.5q0 3 -1 4zM251 133q0 27 -19.5 47t-47.5 20t-48 -19.5t-20 -47.5t19.5 -48t47.5 -20q29 0 48.5 19.5t19.5 48.5zM474 133q0 27 -19.5 47t-47.5 20t-48 -19.5t-20 -47.5t19.5 -48t47.5 -20t48 20t20 48zM295 215q-9 0 -16 -6.5t-7 -15.5
q0 -10 7 -16.5t16 -6.5t15.5 7t6.5 16t-6.5 15.5t-15.5 6.5z" />
    <glyph glyph-name="volume-on-ooyala-defualt" unicode="b" 
d="M359 199q24 0 41 16.5t17 40.5t-16.5 40.5t-41.5 16.5v-114zM68 135h-52q-9 0 -9 10v210q0 10 9 10h52q2 0 2 -2v-226q2 -2 -2 -2zM119 159v190q0 5 4 9.5t9 4.5h60q2 0 2 1l115 81q2 2 4.5 0.5t2.5 -4.5v-370q0 -2 -2.5 -3.5t-4.5 -0.5l-119 77h-2h-56q-13 0 -13 15z
M388 137q-12 0 -12 12t12 12q39 0 66.5 27.5t27.5 66.5q0 40 -27.5 67.5t-66.5 27.5q-12 0 -12 12t12 12q50 0 84.5 -35t34.5 -84q-1 -49 -35.5 -83.5t-83.5 -34.5z" />
    <glyph glyph-name="system-replay" unicode="c" 
d="M242 410q0 -6 5 -6q84 -2 137 -62q19 -22 30 -50q20 -49 9.5 -100.5t-48.5 -92.5l-1 -1q-48 -44 -108 -50t-110 24.5t-73 85.5q-7 18 -25 13q-9 -3 -13 -11t0 -16q34 -84 117 -120q42 -18 86 -18q86 0 154 62v1q48 50 61 114.5t-11 123.5q-12 31 -37 61q-66 77 -168 77
q-6 0 -6 -6v-29h1zM61 419l146 -84q1 -1 2 -0.5t1 1.5v169q0 3 -2 1l-147 -84q-1 -2 0 -3z" />
    <glyph glyph-name="system-auto" unicode="d" 
d="M451 25h-390q-20 0 -34.5 14.5t-14.5 34.5v364q0 20 14.5 34.5t34.5 14.5h390q20 0 34.5 -14.5t14.5 -34.5v-364q0 -20 -14.5 -34.5t-34.5 -14.5zM318 94h70l-102 324h-60l-102 -324h70l17 66h89zM255 330l31 -115h-61z" />
    <glyph glyph-name="system-close" unicode="e" 
d="M39 21q-6 0 -13 5q-13 13 0 25l434 434q5 6 13 6t12 -6q14 -13 0 -25l-433 -433q-6 -6 -13 -6zM473 21q-6 0 -13 5l-433 434q-6 5 -6 13t6 13q13 12 25 0l434 -434q12 -12 0 -25q-6 -6 -13 -6z" />
    <glyph glyph-name="system-menu" unicode="f" 
d="M298 418q0 -17 -12.5 -29.5t-29.5 -12.5t-29.5 12.5t-12.5 29.5t12.5 29.5t29.5 12.5t29.5 -12.5t12.5 -29.5zM298 256q0 -17 -12.5 -29.5t-29.5 -12.5t-29.5 12.5t-12.5 29.5t12.5 29.5t29.5 12.5t29.5 -12.5t12.5 -29.5zM298 94q0 -17 -12.5 -29.5t-29.5 -12.5
t-29.5 12.5t-12.5 29.5t12.5 29.5t29.5 12.5t29.5 -12.5t12.5 -29.5z" />
    <glyph glyph-name="pause-slick" unicode="g" 
d="M96 71v368q0 2 3 2h106q2 0 2 -2v-368h-111zM305 71v368q0 2 2 2h106q3 0 3 -2v-368h-111z" />
    <glyph glyph-name="play-slick" unicode="h" 
d="M435 254l-357 -204q-1 -1 -1 1v410l1 1l356 -205q1 0 1.5 -1t-0.5 -2z" />
    <glyph glyph-name="system-fullscreen" unicode="i" 
d="M98 308h-53v136h130v-53h-77v-83zM467 308h-53v83h-77v53h130v-136zM175 68h-130v136h53v-83h77v-53zM467 68h-130v53h77v83h53v-136z" />
    <glyph glyph-name="system-minimizescreen" unicode="j" 
d="M95 480h64v-163h-154v64h90v99zM353 480h64v-99h90v-64h-154v163zM5 194h154v-162h-64v99h-90v63zM353 194h154v-63h-90v-99h-64v162z" />
    <glyph glyph-name="cc" unicode="k" 
d="M229 232q-1 -49 -28 -77q-28 -26 -75 -26q-23 0 -45 8q-22 11 -32 25q-14 17 -21 40q-7 28 -7 55v51q0 27 7 55q7 23 21 40q10 14 33 25q17 8 44 8q50 0 75 -27q25 -26 28 -78h-60q0 12 -2 26q-3 11 -7 17q-4 5 -13 9q-8 3 -20 3t-20 -4t-14 -13q-6 -14 -7 -24
q-4 -15 -4 -37v-51q0 -27 2 -36q3 -17 7 -24q5 -9 13 -14q8 -4 22 -4q9 0 19 2q10 4 13 8q6 10 7 17q3 10 3 26h61zM483 232q-3 -51 -29 -77t-75 -26q-23 0 -44 8q-20 9 -33 25q-14 18 -20 40q-8 26 -8 55v51q0 29 8 55q6 23 21 40q11 15 33 25q17 8 44 8q48 0 74 -27
q26 -28 29 -78h-60q-2 23 -3 26q-1 9 -7 17q-5 6 -13 9t-19 3q-13 0 -21 -4q-9 -6 -13 -13q-7 -12 -8 -24q-4 -15 -4 -37v-51q0 -18 2 -36q3 -17 8 -24q4 -8 13 -14q7 -4 21 -4q9 0 19 2q10 4 13 8q5 6 8 17q3 21 3 26h61zM4 86h503v-39h-503v39z" />
    <glyph glyph-name="discovery-binoculars" unicode="l" 
d="M219 373q18 12 29 14q22 3 39 -10q5 -4 8 2q11 33 42 40q24 7 45 -6.5t26 -38.5q3 -11 11 -25q32 -44 48 -67q8 -10 13 -15q42 -45 26 -97q-16 -61 -72 -76q-47 -13 -86.5 13t-46.5 75v5q0 8 -7 10q-11 2 -9 15v13q0 3 -1 3h-2q-16 -6 -23 -7q-11 -1 -29 6q-3 2 -4.5 1
t-0.5 -5q0 -13 -1 -19q0 -7 -7 -9q-6 -1 -8 -10q-3 -38 -30 -65q-22 -21 -53.5 -27.5t-59.5 5.5q-29 12 -46.5 38.5t-17.5 58.5q0 43 29 72q9 9 21 26.5t17 23.5q22 32 28 39q3 4 5 14q4 22 20.5 37t38.5 15q20 -1 35.5 -13t20.5 -31q0 -4 2 -5zM482 193q0 31 -23 54t-54 23
q-32 0 -54.5 -22.5t-22.5 -53.5q0 -33 22 -55.5t55 -22.5q31 0 54 23t23 54zM110 116q32 0 54.5 22.5t22.5 54.5t-22.5 54.5t-54.5 22.5t-54.5 -22.5t-22.5 -54.5t22.5 -54.5t54.5 -22.5zM255 306q-13 0 -21.5 -9t-8.5 -21t9 -21t21 -9t20.5 9.5t8.5 21.5q1 12 -8 20.5
t-21 8.5z" />
    <glyph glyph-name="bitrate" unicode="m" 
d="M444 456v-180q0 -9 -9 -9h-181q-9 0 -9 9v180q0 10 9 10h180q10 0 10 -10zM226 192v-138q0 -8 -8 -8h-138q-8 0 -8 8v138q0 9 8 9h138q8 0 8 -9zM181 416v-98q0 -9 -9 -9h-96q-8 0 -8 9v96q0 8 8 8h99q2 1 4 -1t2 -5zM414 176v-73q0 -9 -8 -9h-71q-8 0 -8 9v70q0 9 8 9
h73q6 0 6 -6z" />
    <glyph glyph-name="system-settings" unicode="n" 
d="M496 312q-11 43 -33 77q-15 -15 -38 -15q-37 0 -49.5 34t7.5 58q-30 18 -70 29q-2 -22 -15.5 -36.5t-37.5 -14.5q-25 1 -39 16.5t-15 36.5q-45 -9 -84 -34q17 -25 3.5 -56.5t-48.5 -31.5q-18 0 -31 10q-20 -35 -30 -73q30 -3 42.5 -29.5t0 -52.5t-42.5 -29q9 -39 30 -74
q15 18 41 18q40 0 51.5 -37.5t-14.5 -59.5q38 -24 81 -33q1 22 15.5 38t39.5 16q24 0 38 -15.5t15 -37.5q48 12 87 40q-22 24 -9.5 59.5t50.5 35.5q18 0 33 -10q16 33 22 60q-23 2 -36 19t-13 36.5t13 36.5t36 19zM269 183q-38 -6 -65 21t-21 65q4 23 20.5 40t40.5 21
q38 6 65 -21.5t20 -65.5q-4 -23 -20.5 -39.5t-39.5 -20.5z" />
    <glyph glyph-name="share" unicode="o" 
d="M508 374q0 -53 -38 -91t-92 -38q-53 0 -91 38t-38 91q0 54 38 92t91 38q54 0 92 -38t38 -92zM135 250q0 -26 -19 -45t-45 -19q-27 0 -45.5 19t-18.5 45q0 27 18.5 45.5t45.5 18.5q26 0 45 -18.5t19 -45.5zM297 67q0 -26 -18.5 -45t-45.5 -19q-26 0 -45 19t-19 45t19 45
t45 19q27 0 45.5 -19t18.5 -45zM100 278l187 94l1 -30l-187 -94zM93 234l153 -143l-27 -12l-154 143z" />
    <glyph glyph-name="volume-mute-ooyala-defualt" unicode="p" 
d="M504 198q6 6 0 13l-39 39q-6 6 0 12l39 39q6 7 0 13t-13 0l-39 -39q-6 -6 -12 0l-39 39q-6 6 -13 0q-6 -6 0 -13l39 -39q6 -6 0 -12l-39 -39q-6 -6 0 -13q6 -6 13 0l39 39q6 6 12 0l39 -39q7 -7 13 0zM68 135h-52q-9 0 -9 10v210q0 10 9 10h52q2 0 2 -2v-226q2 -2 -2 -2z
M119 159v190q0 5 4 9.5t9 4.5h60q2 0 2 1l115 81q2 2 4.5 0.5t2.5 -4.5v-370q0 -2 -2.5 -3.5t-4.5 -0.5l-119 77h-2h-56q-13 0 -13 15z" />
    <glyph glyph-name="fast-forward-modern" unicode="q" 
d="M30 93l-3 1q-4 3 -4 6v312q0 4 3 5l3 2l3 -2l279 -161l-279 -161zM33 405v-298l258 149zM208 93l-3 1q-4 1 -4 6v72h10v-66l259 150l-260 149v-68h-9v75q0 4 3 5l2 2l3 -2l280 -161l-279 -161z" />
    <glyph glyph-name="system-left-arrow" unicode="r" 
d="M372 504q7 0 11 -4q11 -11 0 -22l-222 -222l222 -222q11 -11 0 -22t-22 0l-232 233q-11 11 0 21l232 234q5 4 11 4z" />
    <glyph glyph-name="system-right-arrow" unicode="s" 
d="M140 8q-7 0 -11 4q-11 11 0 22l222 222l-222 222q-11 11 0 22t22 0l232 -233q11 -11 0 -22l-232 -233q-5 -4 -11 -4z" />
    <glyph glyph-name="system-more-information" unicode="t" 
d="M256 30q-93 0 -159.5 66.5t-66.5 159.5t66.5 159.5t159.5 66.5t159.5 -66.5t66.5 -159.5t-66.5 -159.5t-159.5 -66.5zM256 446q-79 0 -134.5 -55.5t-55.5 -134.5t55.5 -134.5t134.5 -55.5t134.5 55.5t55.5 134.5t-55.5 134.5t-134.5 55.5zM230 358q0 4 2 10q1 3 6 8
q4 4 8 5q6 2 11 2q7 0 10 -2q5 -1 8 -5q4 -3 6 -8q2 -6 2 -10t-2 -10q-1 -4 -6 -9q-3 -3 -8 -5q-6 -2 -10 -2q-5 0 -11 2q-1 1 -4 2.5t-4 2.5t-2 3q-3 4 -4 6q-2 6 -2 10zM280 129h-48v159h48v-159z" />
    <glyph glyph-name="discovery-tag" unicode="u" 
d="M256 122h-18h-22h-18q-9 0 -9 -9q1 0 1 -28l-1 -28q0 -19 -13.5 -32.5t-32.5 -14.5q-19 0 -33 13.5t-15 33.5v57q0 4 -1.5 6t-5.5 1h-31q-19 0 -33 14t-14 33q0 20 13.5 33.5t33.5 14.5h33q5 0 5 5v95q0 5 -6 5h-33q-19 0 -32.5 14t-13.5 33t13 32.5t32 14.5h34q5 0 5 5
q0 36 1 42q3 18 18 29.5t32 9.5q19 -1 31.5 -14.5t12.5 -32.5v-34q0 -5 5 -5h123q5 0 5 5q0 25 1 38q2 19 15.5 31.5t32.5 11.5t32 -14.5t13 -32.5v-16q1 -16 0 -16q0 -7 9 -7h30q19 -1 32.5 -14.5t13.5 -32.5q0 -20 -13.5 -33.5t-32.5 -13.5h-33q-5 0 -5 -6v-95q0 -5 5 -5
h33q19 0 32.5 -13.5t13.5 -33.5t-13 -33.5t-32 -13.5h-32q-8 0 -8 -7q1 -30 0 -58q0 -18 -11.5 -31t-28.5 -15q-19 -2 -33.5 8t-18.5 28q-2 6 -2 21v48q0 6 -6 6q-10 0 -30 0.5t-30 0.5zM195 321q-6 0 -6 -6v-93q0 -6 6 -6h121q7 0 7 6v93q0 6 -7 6h-60h-61z" />
    <glyph glyph-name="play-chubby" unicode="v" 
d="M467 269l-407 236q-8 4 -15.5 -0.5t-7.5 -12.5v-472q0 -8 8 -12.5t15 -0.5l407 236q8 5 8 13t-8 13z" />
    <glyph glyph-name="play-modern" unicode="w" 
d="M67 33v446l386 -223zM82 452v-392l340 196z" />
    <glyph glyph-name="cc-fill" unicode="x" 
d="M476 90h-440q-7 0 -7 8v316q0 8 7 8h440q7 0 7 -8v-316q0 -8 -7 -8zM191 214q0 -9 -2 -23q-4 -10 -7 -13q-6 -6 -10 -8q-10 -2 -16 -2q-13 0 -18 4q-8 5 -12 11q-4 7 -6 21q-1 8 -1 30v43q0 23 2 31q2 13 6 20q7 9 12 11q7 4 18 4q12 0 16 -2q8 -4 11 -8t6 -14
q1 -8 3 -23h51q-3 42 -24 66t-63 24q-19 0 -37 -8q-16 -6 -28 -20q-12 -13 -18 -34q-6 -20 -6 -46v-44q0 -25 6 -46t18 -34q10 -13 27 -20q18 -8 38 -8q39 0 63 22q23 24 24 66h-53zM394 214q-2 -20 -3 -23q-2 -9 -6 -13q-10 -8 -11 -8q-5 -1 -17 -1q-11 0 -18 4
q-6 3 -11 11q-4 7 -6 20q-1 9 -1 30v44q0 22 2 30q2 14 6 21q4 6 12 11q7 4 17 4q9 0 17 -2q6 -3 11 -8q4 -8 6 -15q2 -12 2 -22h51q-3 43 -24 66t-62 23q-18 0 -37 -7q-16 -7 -28 -21q-11 -11 -18 -33q-6 -21 -6 -47v-43q0 -26 6 -47q6 -18 17 -33q10 -13 28 -21
q19 -7 37 -7q42 0 63 22q23 23 24 65h-51z" />
    <glyph glyph-name="discovery-trending" unicode="y" 
d="M328 298q-36 -50 -53 -74q-3 -5 -35 -50q-18 -27 -40 -2q-35 39 -49 56q-3 4 -7 0q-37 -46 -50 -61q-6 -6 -1 -14q49 -79 143 -89t159 58q54 56 54.5 133.5t-53.5 133.5q-82 84 -194 52q-109 -31 -135 -146q-3 -8 -5 -37q0 -12 -10 -12q-11 0 -11 12q2 61 34 113
q56 87 159.5 97.5t175.5 -64.5q87 -92 49 -213q-38 -118 -161 -144q-65 -14 -126.5 12t-96.5 83q-12 19 2 38q8 10 25.5 31t26.5 32q17 20 34 1q37 -41 51 -58q5 -5 9 1q66 93 82 116q3 3 2 4q-2 2 -5 -1q-15 -5 -43 -17q-12 -5 -15 5q-5 9 7 14q7 3 35.5 14.5t43.5 17.5
q7 3 11.5 0t4.5 -10q1 -14 3.5 -41.5t3.5 -41.5q2 -12 -9 -14q-10 0 -12 12q-2 36 -4 53z" />
    <glyph glyph-name="share-arrow" unicode="z" 
d="M252 56h140q35 0 54.5 27.5t7.5 61.5q-13 39 -56 41h-17q-11 2 -11 13q0 12 11 12h24.5h28.5h24q23 -2 25 -27l1 -36q0 -36 -1 -36q-2 -34 -28 -57.5t-62 -24.5h-282q-40 1 -66 26.5t-27 65.5v269q0 40 26 65.5t67 25.5h104q18 0 18 -12q-1 -13 -18 -13h-102
q-31 0 -50 -18.5t-19 -50.5v-263q0 -32 18.5 -50.5t49.5 -18.5h140zM424 295q-8 18 -22 48q-5 12 -19 11q-64 -8 -114 -66q-39 -44 -70 -120q0 -1 -1.5 -5t-2.5 -6q0 -1 -1 -3t-1.5 -3.5t-2.5 -2t-4 -0.5q-3 1 -3 11q5 46 6 49q14 82 47 134q44 69 116 89q10 3 6 12
q-3 6 -13 31q-2 5 -0.5 6.5t6.5 0.5l138 -42q7 -3 4 -9q-23 -43 -69 -135z" />
  </font>
</defs>
</svg>
