<?xml version="1.0" encoding="utf-8"?>
<!-- Generator: Adobe Illustrator 19.2.1, SVG Export Plug-In . SVG Version: 6.00 Build 0)  -->
<svg version="1.1" id="Layer_1" xmlns="http://www.w3.org/2000/svg" xmlns:xlink="http://www.w3.org/1999/xlink" x="0px" y="0px"
	 viewBox="0 0 50 50" style="enable-background:new 0 0 50 50;" xml:space="preserve">
<style type="text/css">
	.st0{fill:url(#SVGID_1_);}
</style>
<linearGradient id="SVGID_1_" gradientUnits="userSpaceOnUse" x1="6.1646" y1="9.7498" x2="44.8597" y2="41.0844">
	<stop  offset="0" style="stop-color:#FFFFFF"/>
	<stop  offset="0.3282" style="stop-color:#FDFDFD"/>
	<stop  offset="0.4464" style="stop-color:#F6F6F6"/>
	<stop  offset="0.5307" style="stop-color:#EBEBEB"/>
	<stop  offset="0.5989" style="stop-color:#DADADA"/>
	<stop  offset="0.6572" style="stop-color:#C4C4C4"/>
	<stop  offset="0.709" style="stop-color:#A8A8A8"/>
	<stop  offset="0.7557" style="stop-color:#888888"/>
	<stop  offset="0.7987" style="stop-color:#626262"/>
	<stop  offset="0.8387" style="stop-color:#373737"/>
	<stop  offset="0.8742" style="stop-color:#090909"/>
	<stop  offset="0.8807" style="stop-color:#000000"/>
	<stop  offset="0.9831" style="stop-color:#000000"/>
	<stop  offset="1" style="stop-color:#000000"/>
</linearGradient>
<path class="st0" d="M42.8,34.8C39.4,41.1,32.7,45.3,25,45.3C13.8,45.3,4.7,36.2,4.7,25C4.7,13.8,13.8,4.7,25,4.7
	c8.4,0,15.7,5.1,18.7,12.4c1.4,0,2.8,0.1,4.2,0.1C44.7,7.6,35.7,0.8,25,0.8C11.6,0.8,0.8,11.6,0.8,25S11.6,49.2,25,49.2
	c9.9,0,18.3-5.9,22.1-14.3C45.7,34.8,44.3,34.8,42.8,34.8z"/>
</svg>
