<?xml version="1.0" encoding="utf-8"?>
<svg viewBox="0 0 50 50" xmlns="http://www.w3.org/2000/svg" xmlns:svg="http://www.w3.org/2000/svg">
 <style type="text/css">.st0{fill:url(#SVGID_1_);}</style>
 <linearGradient y2="43.8048" x2="41.1994" y1="6.213" x1="10.7582" gradientUnits="userSpaceOnUse" id="SVGID_1_">
  <stop stop-color="#999999" offset="0"/>
  <stop stop-color="#969696" stop-opacity="0.7938" offset="0.1851"/>
  <stop stop-color="#8B8B8B" stop-opacity="0.6156" offset="0.3451"/>
  <stop stop-color="#7A7979" stop-opacity="0.4478" offset="0.4958"/>
  <stop stop-color="#626061" stop-opacity="0.2864" offset="0.6407"/>
  <stop stop-color="#434041" stop-opacity="0.131" offset="0.7803"/>
  <stop stop-color="#231F20" stop-opacity="0" offset="0.8979"/>
 </linearGradient>
 <g>
  <title>Layer 1</title>
  <path fill="black" id="svg_1" d="m42.66193,35.40943c-3.5,6 -10.1,9.9 -17.5,9.9c-10.5,0 -19.5,-8.4 -20.2,-18.9c-0.8,-11.9 8.6,-21.7 20.3,-21.7c8.1,0 15.2,4.7 18.4,11.6c0.2,0.5 0.7,0.8 1.2,0.8c0.4,0 0.9,0 1.3,0c1,0 1.7,-1 1.3,-1.9c-3.9,-8.8 -12.8,-14.8 -23.1,-14.4c-12.3,0.5 -22.4,10.3 -23.3,22.5c-1,14.2 10.2,25.9 24.2,25.9c9.2,0 17.2,-5.1 21.3,-12.6c0.4,-0.8 -0.1,-1.7 -1,-1.8c-0.6,0 -1.2,0 -1.8,0c-0.5,0 -0.9,0.2 -1.1,0.6z" class="st0"/>
 </g>
</svg>
