<?xml version="1.0" encoding="utf-8"?>
<!-- Generator: Adobe Illustrator 18.1.1, SVG Export Plug-In . SVG Version: 6.00 Build 0)  -->
<!DOCTYPE svg PUBLIC "-//W3C//DTD SVG 1.1 Basic//EN" "http://www.w3.org/Graphics/SVG/1.1/DTD/svg11-basic.dtd">
<svg version="1.1" baseProfile="basic" id="Layer_1"
	 xmlns="http://www.w3.org/2000/svg" xmlns:xlink="http://www.w3.org/1999/xlink" x="0px" y="0px" width="74.9px" height="75.9px"
	 viewBox="0 0 74.9 75.9" xml:space="preserve">
<style type="text/css">
	.st0{fill:#507CBD;}
	.st1{fill:#FFFFFF;}
</style>
<g id="facebook_5_">
	<path class="st0" d="M67.2,8.2C62.8,3.8,58.6,4.1,51,4.1H25.1c-7.7,0-12.4-0.3-16.8,4.1c-4.4,4.4-4.7,8.5-4.7,16.2v25.9
		c0,7.7,0.3,12.4,4.7,16.8c4.4,4.4,9.1,4.7,16.8,4.7H51c7.7,0,11.8-0.3,16.2-4.7c4.4-4.4,4.1-9.2,4.1-16.8V24.4
		C71.3,16.7,71.6,12.6,67.2,8.2z"/>
	<path class="st1" d="M39.6,33.7v-3.1c0-0.9,0.8-1.1,1.3-1.1c0.4,0,3,0,3,0v-4.2l-3.6,0c-4.1,0-4.9,3.1-4.9,5.1v3.4h-2.1v4.2h2.1
		c0,4.2,0,10.6,0,10.6h4.2c0,0,0-6.3,0-10.6h3.6l0.4-4.2H39.6z"/>
</g>
</svg>
