<?xml version="1.0" encoding="utf-8"?>
<!-- Generator: Adobe Illustrator 18.1.1, SVG Export Plug-In . SVG Version: 6.00 Build 0)  -->
<!DOCTYPE svg PUBLIC "-//W3C//DTD SVG 1.1 Basic//EN" "http://www.w3.org/Graphics/SVG/1.1/DTD/svg11-basic.dtd">
<svg version="1.1" baseProfile="basic" id="Layer_1"
	 xmlns="http://www.w3.org/2000/svg" xmlns:xlink="http://www.w3.org/1999/xlink" x="0px" y="0px" width="74.9px" height="75.9px"
	 viewBox="0 0 74.9 75.9" xml:space="preserve">
<style type="text/css">
	.st0{fill:#FF6464;}
	.st1{fill:#FFFFFF;}
</style>
<g id="google_x2B__5_">
	<path class="st0" d="M66.6,8.2c-4.4-4.4-9.2-4.1-16.8-4.1H23.9c-7.7,0-11.8-0.3-16.2,4.1c-4.4,4.4-4.1,8.5-4.1,16.2v25.9
		c0,7.7-0.3,12.4,4.1,16.8c4.4,4.4,8.5,4.7,16.2,4.7h25.9c7.7,0,12.4-0.3,16.8-4.7c4.4-4.4,4.7-9.2,4.7-16.8V24.4
		C71.3,16.7,71,12.6,66.6,8.2z"/>
	<g>
		<path class="st1" d="M39.1,39.2c-0.7-0.5-1.9-1.6-1.9-2.3c0-0.8,0.2-1.2,1.4-2.1c1.2-0.9,2.1-2,2.1-3.5c0-1.8-0.8-3.9-2.4-3.9h2.3
			l1.6-2.1h-7.3c-3.3,0-6.4,2.7-6.4,5.5c0,3,2.2,5.4,5.6,5.4c0.2,0,0.5,0,0.7,0c-0.2,0.4-0.4,0.9-0.4,1.4c0,0.8,0.4,1.5,1,2
			c-0.4,0-0.8,0-1.3,0c-4.1,0-7.2,2.6-7.2,5.3c0,2.7,3.4,4.3,7.5,4.3c4.6,0,7.2-2.6,7.2-5.3C41.6,41.9,41,40.6,39.1,39.2z
			 M35.2,35.5c-1.9-0.1-3.7-2.1-4-4.6c-0.3-2.5,0.9-4.4,2.8-4.3c1.9,0.1,3.7,2,4,4.5C38.3,33.6,37,35.6,35.2,35.5z M34.4,48.1
			c-2.8,0-4.9-1.8-4.9-3.9c0-2.1,2.5-3.8,5.3-3.8c0.7,0,1.3,0.1,1.8,0.3c1.5,1.1,2.6,1.7,2.9,2.9c0.1,0.2,0.1,0.5,0.1,0.8
			C39.8,46.4,38.4,48.1,34.4,48.1z"/>
		<polygon class="st1" points="45.9,35.8 45.9,33.7 43.7,33.7 43.7,35.8 41.6,35.8 41.6,37.9 43.7,37.9 43.7,40.1 45.9,40.1 
			45.9,37.9 48,37.9 48,35.8 		"/>
	</g>
</g>
</svg>
