<?xml version="1.0" encoding="utf-8"?>
<!-- Generator: Adobe Illustrator 18.1.1, SVG Export Plug-In . SVG Version: 6.00 Build 0)  -->
<!DOCTYPE svg PUBLIC "-//W3C//DTD SVG 1.1 Basic//EN" "http://www.w3.org/Graphics/SVG/1.1/DTD/svg11-basic.dtd">
<svg version="1.1" baseProfile="basic" id="Layer_1"
	 xmlns="http://www.w3.org/2000/svg" xmlns:xlink="http://www.w3.org/1999/xlink" x="0px" y="0px" width="74.9px" height="75.9px"
	 viewBox="0 0 74.9 75.9" xml:space="preserve">
<style type="text/css">
	.st0{fill:#64CBEE;}
	.st1{fill:#FFFFFF;}
</style>
<g id="twitter_5_">
	<path class="st0" d="M66.9,8.7c-4.4-4.4-9-4.1-16.7-4.1H24.4c-7.7,0-11.9-0.3-16.4,4.1c-4.4,4.4-4.3,8.5-4.3,16.2v25.9
		c0,7.7-0.2,12.4,4.3,16.8c4.4,4.4,8.7,4.7,16.4,4.7h25.9c7.7,0,12.2-0.3,16.7-4.7c4.4-4.4,4.6-9.2,4.6-16.8V24.8
		C71.5,17.2,71.3,13.1,66.9,8.7z"/>
	<path class="st1" d="M49.8,29.6c-0.9,0.4-1.9,0.7-2.9,0.8c1-0.7,1.8-1.7,2.2-3c-1,0.6-2,1-3.2,1.3c-0.9-1-2.2-1.7-3.6-1.7
		c-2.7,0-5,2.4-5,5.4c0,0.4,0,0.8,0.1,1.2c-4.1-0.2-7.8-2.4-10.3-5.6c-0.4,0.8-0.7,1.7-0.7,2.7c0,1.9,0.5,3.5,1.9,4.5
		c-0.8,0-0.5-0.3-2.6-0.7c0,0,0,0,0,0.1c0,2.6,2.1,4.8,4.3,5.3C29.7,40,29.5,40,29,40c-0.3,0-0.5,0-0.8-0.1c0.6,2.1,2.5,3.7,4.7,3.7
		c-1.7,1.4-3.8,2.3-6.2,2.3c-0.4,0-0.8,0-1.2-0.1c2.2,1.5,4.8,2.4,7.6,2.4c9.2,0,14.2-8.2,14.2-15.3c0-0.2,0-0.5,0-0.7
		C48.3,31.6,49.1,30.6,49.8,29.6z"/>
</g>
</svg>
