<?xml version="1.0" encoding="utf-8"?>
<!-- Generator: Adobe Illustrator 19.2.1, SVG Export Plug-In . SVG Version: 6.00 Build 0)  -->
<svg version="1.1" id="Layer_1" xmlns="http://www.w3.org/2000/svg" xmlns:xlink="http://www.w3.org/1999/xlink" x="0px" y="0px"
	 viewBox="0 0 100 100" style="enable-background:new 0 0 100 100;" xml:space="preserve">
<style type="text/css">
	.st0{fill:#E2E2E2;}
	.st1{fill:#FFFFFF;}
</style>
<rect x="83.4" y="0" class="st0" width="16.6" height="16.6"/>
<rect x="83.4" y="16.6" class="st1" width="16.6" height="16.6"/>
<rect x="83.4" y="33.3" class="st0" width="16.6" height="16.7"/>
<rect x="50" y="0" class="st0" width="16.7" height="16.6"/>
<rect x="50" y="16.6" class="st1" width="16.7" height="16.6"/>
<rect x="50" y="33.3" class="st0" width="16.7" height="16.7"/>
<rect x="66.8" y="0" class="st1" width="16.6" height="16.6"/>
<rect x="66.8" y="16.6" class="st0" width="16.6" height="16.6"/>
<rect x="66.8" y="33.3" class="st1" width="16.6" height="16.7"/>
<rect x="83.4" y="50" class="st1" width="16.6" height="16.6"/>
<rect x="83.4" y="66.7" class="st0" width="16.6" height="16.6"/>
<rect x="83.4" y="83.4" class="st1" width="16.6" height="16.7"/>
<rect x="50" y="50" class="st1" width="16.7" height="16.6"/>
<rect x="50" y="66.7" class="st0" width="16.7" height="16.6"/>
<rect x="50" y="83.4" class="st1" width="16.7" height="16.7"/>
<rect x="66.8" y="50" class="st0" width="16.6" height="16.6"/>
<rect x="66.8" y="66.7" class="st1" width="16.6" height="16.6"/>
<rect x="66.8" y="83.4" class="st0" width="16.6" height="16.7"/>
<rect x="0" y="83.4" class="st0" width="16.6" height="16.6"/>
<rect x="0" y="66.8" class="st1" width="16.6" height="16.6"/>
<rect x="0" y="50" class="st0" width="16.6" height="16.7"/>
<rect x="33.3" y="83.4" class="st0" width="16.7" height="16.6"/>
<rect x="33.3" y="66.8" class="st1" width="16.7" height="16.6"/>
<rect x="33.3" y="50" class="st0" width="16.7" height="16.7"/>
<rect x="16.6" y="83.4" class="st1" width="16.6" height="16.6"/>
<rect x="16.6" y="66.8" class="st0" width="16.6" height="16.6"/>
<rect x="16.6" y="50" class="st1" width="16.6" height="16.7"/>
<rect x="0" y="33.4" class="st1" width="16.6" height="16.6"/>
<rect x="0" y="16.7" class="st0" width="16.6" height="16.6"/>
<rect x="0" y="0" class="st1" width="16.6" height="16.7"/>
<rect x="33.3" y="33.4" class="st1" width="16.7" height="16.6"/>
<rect x="33.3" y="16.7" class="st0" width="16.7" height="16.6"/>
<rect x="33.3" y="0" class="st1" width="16.7" height="16.7"/>
<rect x="16.6" y="33.4" class="st0" width="16.6" height="16.6"/>
<rect x="16.6" y="16.7" class="st1" width="16.6" height="16.6"/>
<rect x="16.6" y="0" class="st0" width="16.6" height="16.7"/>
</svg>
