<?xml version="1.0" encoding="UTF-8" standalone="no"?>
<svg width="250px" height="250px" viewBox="0 0 250 250" version="1.1" xmlns="http://www.w3.org/2000/svg" xmlns:xlink="http://www.w3.org/1999/xlink">
    <!-- Generator: Sketch 46.2 (44496) - http://www.bohemiancoding.com/sketch -->
    <title>Arrows Black</title>
    <desc>Created with Sketch.</desc>
    <defs></defs>
    <g id="Icons-360" stroke="none" stroke-width="1" fill="none" fill-rule="evenodd" opacity="0.840543377">
        <g id="Arrows-Black" fill="#000000">
            <path fill="#FFFFFF" d="M164,85.5584673 L234.441533,85.5584673 C241.621234,85.5584673 247.441533,91.3787656 247.441533,98.5584673 L247.441533,98.5584673 L247.441533,152.558467 C247.441533,159.738169 241.621234,165.558467 234.441533,165.558467 L164,165.558467 L164,236 C164,243.179702 158.179702,249 151,249 L97,249 L97,249 C89.8202983,249 84,243.179702 84,236 L84,165.558467 L13.5584673,165.558467 C6.37876558,165.558467 0.558467327,159.738169 0.558467327,152.558467 L0.558467327,98.5584673 L0.558467327,98.5584673 C0.558467327,91.3787656 6.37876558,85.5584673 13.5584673,85.5584673 L84,85.5584673 L84,15.1169347 L84,15.1169347 C84,7.93723291 89.8202983,2.11693465 97,2.11693465 L97,2.11693465 L151,2.11693465 C158.179702,2.11693465 164,7.93723291 164,15.1169347 L164,85.5584673 Z M124,155 C140.016258,155 153,142.016258 153,126 C153,109.983742 140.016258,97 124,97 C107.983742,97 95,109.983742 95,126 C95,142.016258 107.983742,155 124,155 Z M124.816968,24.1573711 C124.751168,24.0641545 124.6699,23.9828865 124.576683,23.9170865 C124.125484,23.5985931 123.501525,23.7061722 123.183032,24.1573711 L101.112953,55.4233168 C100.993859,55.5920335 100.929921,55.7934843 100.929921,56 C100.929921,56.5522847 101.377636,57 101.929921,57 L101.929921,57 L146.070079,57 C146.276595,57 146.478046,56.936062 146.646762,56.8169679 C147.097961,56.4984745 147.20554,55.8745157 146.887047,55.4233168 L146.887047,55.4233168 L124.816968,24.1573711 Z M225.240959,125.183032 L193.975013,103.112953 L193.975013,103.112953 C193.523814,102.79446 192.899856,102.902039 192.581362,103.353238 C192.462268,103.521954 192.39833,103.723405 192.39833,103.929921 L192.39833,148.070079 C192.39833,148.622364 192.846045,149.070079 193.39833,149.070079 C193.604846,149.070079 193.806297,149.006141 193.975013,148.887047 L225.240959,126.816968 C225.692158,126.498475 225.799737,125.874516 225.481244,125.423317 C225.415444,125.3301 225.334176,125.248832 225.240959,125.183032 Z M124.816968,227.277974 L146.887047,196.012028 L146.887047,196.012028 C147.20554,195.560829 147.097961,194.93687 146.646762,194.618377 C146.478046,194.499283 146.276595,194.435345 146.070079,194.435345 L101.929921,194.435345 C101.377636,194.435345 100.929921,194.88306 100.929921,195.435345 C100.929921,195.641861 100.993859,195.843311 101.112953,196.012028 L123.183032,227.277974 C123.501525,227.729173 124.125484,227.836752 124.576683,227.518258 C124.6699,227.452458 124.751168,227.37119 124.816968,227.277974 Z M22.3980748,125.183032 C22.3048581,125.248832 22.2235901,125.3301 22.1577901,125.423317 C21.8392968,125.874516 21.9468759,126.498475 22.3980748,126.816968 L22.3980748,126.816968 L53.6640204,148.887047 C53.8327371,149.006141 54.0341879,149.070079 54.2407036,149.070079 C54.7929884,149.070079 55.2407036,148.622364 55.2407036,148.070079 L55.2407036,148.070079 L55.2407036,103.929921 C55.2407036,103.723405 55.1767656,103.521954 55.0576715,103.353238 C54.7391782,102.902039 54.1152193,102.79446 53.6640204,103.112953 L53.6640204,103.112953 L22.3980748,125.183032 Z" id="Combined-Shape"></path>
        </g>
    </g>
</svg>