<?xml version="1.0" encoding="UTF-8" standalone="no"?>
<svg width="189px" height="138px" viewBox="0 0 189 138" version="1.1" xmlns="http://www.w3.org/2000/svg" xmlns:xlink="http://www.w3.org/1999/xlink">
    <!-- Generator: Sketch 46.2 (44496) - http://www.bohemiancoding.com/sketch -->
    <title>Cardboard Black</title>
    <desc>Created with Sketch.</desc>
    <defs>
        <filter xmlns="http://www.w3.org/2000/svg" id="dropshadow" height="130%">
            <feGaussianBlur in="SourceAlpha" stdDeviation="3"/>
            <feOffset dx="2" dy="2" result="offsetblur"/>
            <feComponentTransfer>
                <feFuncA type="linear" slope="0.2"/>
            </feComponentTransfer>
            <feMerge>
                <feMergeNode/>
                <feMergeNode in="SourceGraphic"/>
            </feMerge>
        </filter>
    </defs>
    <g id="Icons-360" stroke="none" stroke-width="1" fill="none" fill-rule="evenodd">
        <g id="Cardboard-Black" fill-rule="nonzero">
            <g id="virtual-reality" transform="translate(-5.500000, -6.000000)">
                <path id="Shape1" d="M183.333203,25 L183.333203,16.6667969 C183.333203,7.475 175.858594,0 166.666406,0 L33.3332031,0 C24.1414062,0 16.6664062,7.47460938 16.6664062,16.6667969 L16.6664062,25 C7.47460938,25 0,32.4746094 0,41.6667969 L0,133.333594 C0,142.525391 7.47460938,150 16.6667969,150 L59.7210938,150 C68.1601562,150 75.7082031,144.966797 78.9511719,137.178516 L80.5535156,133.333203 L119.447266,133.333203 L121.049609,137.178516 C124.292187,144.966797 131.839844,150 140.279297,150 L183.333594,150 C192.525391,150 200,142.525391 200,133.333203 L200,41.6667969 C200,32.4746094 192.525391,25 183.333203,25 Z"></path>
                <g id="Group" fill="#FFFFFF" transform="translate(84.000000, 99.203125)">
                    <path id="Shape2" d="M0.025,25.796875 L8.30546875,5.92382812 C9.60351562,2.8109375 12.6269531,0.796875 16,0.796875 C19.3730469,0.796875 22.3964844,2.8109375 23.6945312,5.92382812 L31.975,25.796875 L0.025,25.796875 Z"></path>
                </g>
                <path id="Combined-Shape1" d="M183.333203,25 L183.333203,16.6667969 C183.333203,7.475 175.858594,0 166.666406,0 L33.3332031,0 C24.1414062,0 16.6664062,7.47460938 16.6664062,16.6667969 L16.6664062,25 C7.47460938,25 0,32.4746094 0,41.6667969 L0,133.333594 C0,142.525391 7.47460938,150 16.6667969,150 L59.7210938,150 C68.1601562,150 75.7082031,144.966797 78.9511719,137.178516 L80.5535156,133.333203 L119.447266,133.333203 L121.049609,137.178516 C124.292187,144.966797 131.839844,150 140.279297,150 L183.333594,150 C192.525391,150 200,142.525391 200,133.333203 L200,41.6667969 C200,32.4746094 192.525391,25 183.333203,25 Z"></path>
                <path id="Combined-Shape2" fill="#FFFFFF" d="M191.666797,133.333203 C191.666797,137.926953 187.927344,141.666406 183.333594,141.666406 L140.279297,141.666406 C135.217578,141.666406 130.688672,138.647266 128.739453,133.971875 L115.384766,101.920313 C112.788672,95.690625 106.750391,91.6664063 100,91.6664063 C93.2496094,91.6664063 87.2109375,95.690625 84.6152344,101.920313 L71.2605469,133.971875 C69.3113281,138.647266 64.7828125,141.666406 59.7207031,141.666406 L16.6667969,141.666406 C12.0730469,141.666406 8.33359375,137.926953 8.33359375,133.333203 L8.33359375,41.6667969 C8.33359375,37.0730469 12.0730469,33.3335937 16.6667969,33.3335937 L183.333594,33.3335937 C187.927344,33.3335937 191.666797,37.0730469 191.666797,41.6667969 L191.666797,133.333203 Z M150,100 C159.204818,100 166.666797,92.5380209 166.666797,83.3332031 C166.666797,74.1283854 159.204818,66.6664063 150,66.6664063 C140.795182,66.6664063 133.333203,74.1283854 133.333203,83.3332031 C133.333203,92.5380209 140.795182,100 150,100 Z M50,100 C59.2048177,100 66.6667969,92.5380209 66.6667969,83.3332031 C66.6667969,74.1283854 59.2048177,66.6664063 50,66.6664063 C40.7951823,66.6664063 33.3332031,74.1283854 33.3332031,83.3332031 C33.3332031,92.5380209 40.7951823,100 50,100 Z"></path>
                <path id="Shape3" fill="#FFFFFF" d="M25,16.6667969 C25,12.0730469 28.7394531,8.33359375 33.3332031,8.33359375 L166.666406,8.33359375 C171.260156,8.33359375 174.999609,12.0730469 174.999609,16.6667969 L174.999609,25 L25,25 L25,16.6667969 Z"></path>
            </g>
        </g>
    </g>
</svg>